<?xml version="1.0" standalone="no"?>
<!DOCTYPE svg PUBLIC "-//W3C//DTD SVG 1.1//EN" "http://www.w3.org/Graphics/SVG/1.1/DTD/svg11.dtd" >
<svg xmlns="http://www.w3.org/2000/svg">
<metadata>Generated by IcoMoon</metadata>
<defs>
<font id="icomoon" horiz-adv-x="1024">
<font-face units-per-em="1024" ascent="812" descent="-212" />
<missing-glyph horiz-adv-x="1024" />
<glyph unicode="&#x20;" d="" />
<glyph unicode="&#x36;" glyph-name="six" horiz-adv-x="1000" d="M500 714q102 0 194.5-32.5t159.5-87 106.5-129.5 39.5-158q0-110-67-203.5t-182-148-251-54.5q-39 0-78 5-73-73-161-100t-199-30v27q54 26 90 69t36 91q0 14-3 29-86 56-135.5 138.5t-49.5 176.5q0 111 67 204.5t182 148 251 54.5zM190 394q-33 0-56.5-23.5t-23.5-56.5 23.5-56.5 56.5-23.5 56.5 23.5 23.5 56.5q0 22-10.5 40.5t-29 29-40.5 10.5zM500 394q-33 0-56.5-23.5t-23.5-56.5 23.5-56.5 56.5-23.5 56.5 23.5 23.5 56.5q0 13-4 25.5t-11.5 22-17.5 17-22 11.5-25 4zM830 394q-17 0-31.5-6.5t-25.5-17-17.5-25.5-6.5-31q0-33 23.5-56.5t57-23.5 57 23.5 23.5 56.5-23.5 56.5-56.5 23.5z" />
<glyph unicode="&#x3a;" glyph-name="colon" horiz-adv-x="1000" d="M799 548q6 5 12 9l10 8q5 4 9 7 10 8 22.5 6.5t20.5-9.5 9-21.5-7-21.5q-3-3-8.5-8t-10.5-10q-6-5-13-11 13-16 26-42t24-57.5 18-66.5 7-69q0-84-32-157.5t-86.5-128-128-86.5-157.5-32-157.5 32-128 86.5-86.5 128-32 157.5 32 157.5 86.5 128 128 86.5 157.5 32q86 0 160-32.5t125-85.5zM515 593q-69 0-129.5-26t-105.5-71-71-105.5-26-129.5 26-129.5 71-105.5 105.5-71 129.5-26 129.5 26 105.5 71 71 105.5 26 129.5-26 129.5-71 105.5-105.5 71-129.5 26zM582 727q0-14-7-25.5t-17-19.5-21.5-12-21.5-4q-11 0-23 4t-22 12-16.5 19-6.5 26v56h135v-56zM533 251q-8-6-17-5.5t-15 8.5q-6 7-5 16t9 16l204 173q7 5 17 5t16-7q6-8 5-17t-10-17zM545 536q0-12-8.5-21t-21.5-9-22 9-9 21q0 13 9 22t22 9 21.5-9 8.5-22zM286 262q0-13-9-22t-22-9-21.5 9-8.5 22 8.5 21.5 21.5 8.5 22-8.5 9-21.5zM544-5q0-13-8.5-22t-21.5-9-22 9-9 22 9 21.5 22 8.5 21.5-8.5 8.5-21.5zM803 262q0-13-9-22t-21-9q-13 0-22 9t-9 22 9 21.5 22 8.5q12 0 21-8.5t9-21.5z" />
<glyph unicode="&#x3e;" glyph-name="greater" horiz-adv-x="1000" d="M510 674q2 0 5 2 6 4 16 14 12 11 24 16t32-3q10-3 16-8.5t11.5-10.5 12-8.5 16.5-3.5 17 3 13.5 5.5 13 3.5 15.5-2q10-4 13.5-11.5t2-15.5-7-16-13.5-13q-19-12-29-24.5t-20-26.5q-5-7-11-16t-11-18q-6-11-13-21h-207q-7 12-14 23-6 10-13 20t-12 18q-10 15-22.5 26.5t-24.5 20.5q-13 9-18 24.5t9 26.5q7 5 16 4t19-4 19.5-6 17.5-1q14 3 21 10.5t24 18.5q13 8 29 5.5t24-10.5q4-5 8.5-8.5t9.5-6.5q5-4 11-7zM623 474q12-16 30-35 15-17 37-38.5t51-45.5q24-21 49.5-49.5t44.5-66.5 26.5-87.5-2.5-110.5q-9-50-35.5-94.5t-70.5-77.5-104.5-52.5-137.5-19.5q-79 0-140 22.5t-103.5 58.5-67.5 80.5-33 88.5q-9 49-2.5 94t23.5 84.5 42.5 72.5 55.5 59q26 23 47 43.5t35 37.5q17 19 30 36h225zM517 167l-48 48q-10 10-14 15-8 7-21 11.5t-22-5.5q-8-11-4-21.5t9-16.5l15-14q11-12 24-26 15-16 33-34l-1-21h-68q-9 0-15.5-7t-6.5-15 6-14 16-6h68v-35h-68q-9 0-15.5-5.5t-6.5-14.5q-1-8 5.5-13.5t16.5-5.5h68v-20q1-14 9-19.5t20-5.5q12-1 19.5 7.5t7.5 17.5v20h70q10 0 16.5 4.5t5.5 14.5q0 21-28 21h-64l1 34 65 1q14-1 20 5.5t6 15.5q0 8-6.5 14.5t-20.5 6.5h-65v19q17 16 31 31 12 12 24 24.5t18 17.5q23 20 10 35-7 9-18 9t-20-8q-5-4-17-14.5t-24-21.5q-14-13-31-29z" />
<glyph unicode="&#x78;" glyph-name="x" horiz-adv-x="1001" d="M281 519q-27-1-53-1h-83q-18 0-36.5-6t-32.5-18.5-23-32-9-45.5v-76h912v41q0 16-0.5 30t-0.5 18q0 13-5 29t-17 29.5-31.5 22.5-49.5 9h-133v-97h-438v97zM955 286v-52q0-23 0.5-52t0.5-58-10.5-47.5-26-30-33-16-31.5-4.5q-14-1-29.5-0.5t-29.5 0.5h-32l-45 128h-439l-44-128h-63q-20 0-45 1-25 0-41 9.5t-25.5 23-13.5 29.5-4 30v167h911zM163 223q-12 0-21-8.5t-9-21.5 9-21.5 21-8.5q13 0 22 8.5t9 21.5-9 21.5-22 8.5zM316 99q-8-26-14-48-5-19-10.5-37t-7.5-25-3-15 1-14.5 9.5-10.5 21.5-4h365q23 0 34 12t2 38q-5 13-9.5 30.5t-9.5 34.5q-5 19-11 39h-368zM336 474v228q0 11 2.5 23t10 21.5 20.5 15.5 34 6h188q31 0 51.5-14.5t20.5-52.5v-227h-327z" />
<glyph unicode="&#x7e;" glyph-name="asciitilde" d="M933 510q-27 26-64.5 26t-64.5-26l-357-346-163 157q-17 18-40.5 24t-47 0-41.5-24q-10-10-16.5-22.5t-8.5-26 0-27 8.5-26.5 16.5-23l227-220q27-26 65-26 16 0 31.5 5.5t28.5 16.5l5 4 421 409q27 26 27 62.5t-27 62.5z" />
<glyph unicode="&#xdf;" glyph-name="germandbls" horiz-adv-x="1000" d="M866 47q29-30 42.5-55t-4.5-57q-4-6-11-14.5t-14.5-16.5-15-14.5-12.5-9.5q-25-15-59-8t-61 34l-236 236-128-128q-59-59-96-97-38-38-75.5-47t-66.5 17l-29 29q-6 6-7 8-11 14-13 28.5t2.5 28.5 13.5 27 20 24q9 8 32 30l54 56q33 32 73.5 72t84.5 84q-48 48-91.5 91t-78 77-56.5 55.5-27 26.5q-26 26-26.5 51.5t17.5 51.5q8 10 23 23.5t21 17.5q30 20 54 17.5t48-27.5l31-31q23-23 57-56t76.5-74.5 88.5-86.5q38 38 74.5 74t68 67.5 57 56.5 42.5 42q24 23 52 30.5t54-12.5q1-1 6.5-5t11-9 10.5-9.5 7-5.5q27-26 26.5-56.5t-26.5-56.5q-18-18-44.5-45t-59-59-68.5-68l-76-76q37-36 72.5-70.5t66-64.5 55-55 40.5-41z" />
<glyph unicode="&#xe2;" glyph-name="acircumflex" horiz-adv-x="1000" d="M628-100v-11q0-5 0.5-11t0.5-12q-1-19-10.5-41.5t-36.5-32.5q-11-4-28.5-11.5t-52.5-7.5q-30 0-49.5 7t-30.5 9q-14 3-22.5 12.5t-13 21.5-5.5 24.5-1 22.5v31zM845 554q26-61 30-115t-6-99.5-29-81.5-39.5-63-38.5-44.5-25-23.5q-10-9-18.5-13.5t-15-7.5-12.5-7-12-13q-13-19-20-37t-12-35q-5-14-11-23t-13-16q-8-8-16-13h-220q-8 5-15 13-7 7-14 18t-12 28q-10 29-24.5 46.5t-37.5 34.5q-16 12-36.5 32t-40.5 47-38 60.5-29 73.5-13 85.5 9 95.5q17 80 59 134.5t94 87.5 107.5 47.5 100.5 14.5q47 0 98-13t98.5-40.5 87-70 64.5-102.5zM744 350q43 175-112 267-26 16-60.5 25t-70.5 9-71.5-9-63.5-28q-68-47-92-102t-22-116q1-34 11.5-61t25-49 30-38.5 27.5-29.5q25-26 44-45.5t30-49.5q11-29 34.5-35.5t43.5-6.5q26 0 50 11.5t34 35.5q5 14 20.5 34t46.5 56q16 19 30.5 33t27 28 22 30.5 15.5 40.5z" />
<glyph unicode="&#xe3;" glyph-name="atilde" d="M491 733q-100 0-191-38.5t-156.5-104.5-104.5-157-39-191q0-80 25-154.5t70-135 105.5-106 135.5-70 155-24.5q100 0 191 38.5t156.5 104.5 104.5 157 39 190.5-39 190.5-104.5 157-156.5 104.5-191 38.5zM555-18q0-7-5-12t-12-5h-94q-7 0-12 5t-5 12v94q0 7 5 12t12 5h94q7 0 12-5t5-12v-94zM555 195q0-14-14-16l-3-1h-94q-5 0-9 2.5t-6 6.5-2 8v308q0 7 5 12t12 5h94q7 0 12-5t5-12v-308z" />
<glyph unicode="&#xe4;" glyph-name="adieresis" d="M512 710q-90 0-173-35.5t-142.5-95-95-142.5-35.5-173.5 35.5-173 95-142.5 142.5-95.5 173.5-35.5 173 35.5 142.5 95.5 95.5 142.5 35.5 173.5q0 45-9.5 89.5t-26 84-41 75.5-54.5 66-66 54.5-76 41.5-84 26-90 9zM560-26q-19-20-48-20-29 1-49 21-17 17-17 46 0 10 2 18.5t6.5 16 10.5 13.5q18 18 47 18 28 0 48-20 18-18 18-46 0-30-18-47zM622 270q-5-5-16.5-15t-14.5-13.5-10-11-8.5-13-3.5-14-2-18.5q-1-54-54-54t-53 54q0 45 13.5 70.5t49.5 60.5q26 24 38.5 48.5t12.5 49.5q0 8-2 15t-5.5 13-9.5 10q-16 14-45 14-31 0-46-15t-15-37q-1-55-54-55t-53 55q0 65 49 111 26 24 56 36t63 12q38 0 68.5-11t53.5-32q47-45 47-116 0-13-1-25.5t-3.5-23.5-6.5-22-8.5-20.5-10.5-19-13.5-17.5-15.5-16z" />
<glyph unicode="&#xe8;" glyph-name="egrave" d="M410 293q15 10 26 24.5t17.5 32.5 6.5 37q0 47-33 80.5t-80 33.5-80-33-33-80q0-29 13.5-54.5t35.5-41.5q-54-21-87-70t-33-117q0-35 57.5-54.5t126.5-19.5 126.5 19.5 57.5 54.5q0 68-33 117t-88 71zM608 456h222v-65h-222v65zM608 296h222v-64h-222v64zM608 134h222v-62h-222v62zM960-14q0-12-4-23t-11-20.5-16.5-16-21-10.5-24.5-4h-742q-32 0-54.5 22t-22.5 52v555q0 31 22.5 53t54.5 22h742q16 0 30-6t24.5-16 16.5-24 6-29v-555zM927 540q0 18-13 30.5t-32 12.5h-740q-19 0-32-12.5t-13-30.5v-554q0-17 13-29.5t32-12.5h740q12 0 22.5 5.5t16.5 15.5 6 21v554z" />
<glyph unicode="&#xf7;" glyph-name="divide" horiz-adv-x="1000" d="M376 400h-126v147q0 48 19 89.5t52.5 73 79 49.5 99.5 18q48 0 92.5-18t79-49.5 55-73 20.5-89.5v-147h-121v119q0 63-35 97.5t-95 34.5q-54 0-87-34.5t-33-97.5v-119zM807 340q27 0 46.5-19.5t19.5-46.5v-310q0-27-9.5-50.5t-26-41-39-27.5-49.5-10h-505q-27 0-49 10t-37.5 26.5-24 38.5-8.5 47v317q0 27 19 46.5t46 19.5h617z" />
<glyph unicode="&#x125;" glyph-name="hcircumflex" horiz-adv-x="1000" d="M282 592q19 0 36.5-7.5t30.5-20 20.5-30 7.5-37.5-7.5-37-20.5-30-30.5-20.5-36.5-7.5q-20 0-37.5 7.5t-30 20.5-20 30-7.5 37q0 40 27.5 67.5t67.5 27.5zM624-100h-500q-25 0-47 8t-39 24-27 38.5-10 51.5v628q0 25 9 47.5t25 39.5 38 27.5 48 10.5h628q54 0 90.5-33.5t36.5-98.5v-384q-11 13-22 25.5t-22 24.5q-17 19-38 28.5t-42.5 9.5-42-9-36.5-27q-24-28-49-59.5t-49-63-46-61-40-51.5q-11-13-12.5-32t4.5-36.5 19-30 33-12.5h48l43 1v-66zM269 214q52 0 89 17.5t67.5 44 59 57.5 65 58 84.5 46 117 22v168q0 12-8.5 20t-19.5 8h-570q-12 0-20-8t-8-20v-349q10-12 21-23.5t27-20.5 38.5-14.5 57.5-5.5zM922 78q18-29 20.5-40.5t-30.5-11.5h-55q-22 0-33-11t-11-28v-98q0-17-15-34t-36-17h-40q-14 0-25.5 11.5t-11.5 40.5q0 13 0.5 16.5t0.5 9 0.5 18.5 0.5 45q0 26-9 36.5t-31 10.5h-53q-23 0-29.5 10t9.5 30 34.5 46.5 38 54.5 38 55.5 35.5 48.5q7 8 18.5 11.5t24 3.5 23-4 14.5-11q13-21 28.5-45.5t32-50 32-50.5 29.5-47z" />
<glyph unicode="&#x131;" glyph-name="dotlessi" d="M872 400q-1 9-6 14t-15 5l-72-3v22h-24q-11 0-16-1.5t-5-5.5v-16l-47-2v9q-43 3-43-8v-57h90v-39h-62v-15h62v-75l45 5v70h66v15h-66v39h78v8h1q6 0 10 10zM825 403q7 0 7-6l-3-25h-142v26l92 2v1zM625 386h-24v52h-25q-10 0-15.5-2t-5.5-5v-45h-86v-15h86v-149h46v149h24v15zM461 438q-21 1-21-7 0-34-61-76l6-10 31 14v-126l46-6v163q5 6 8.5 11.5t6 11.5 4 12.5 1.5 12.5h-21zM805 266l12-13 14-12q4-4 8 0l13 12 12 13q3 4 0 8l-12 14-13 11q-4 4-8 0l-14-11-12-14q-4-4 0-8zM549 323l-15 18-18 16q-5 5-10 0l-18-16-16-18q-2-3-2-5.5t2-5.5l34-33q5-5 10 0l18 16 15 17q2 2 3 4t0 3.5-3 3.5zM859 180l18 4 11 11q10 15 32 33 26 22 18 13 5 5 4 9 0 2-1.5 3t-3.5 0l-11-1q-56-12-125-19.5t-150-11.5q-189-7-280 19-50 14-55 16-7 2-19.5 6.5t-19.5 6.5q-1 0-3.5 1t-4 1.5-4 1.5-4 1.5-3.5 1.5q-62 27-98 26-33 0-56-15-24-17-23-44-1-30 24-47 6-4 12.5-7t14.5-5l16-4h3q-6 1-12.5 3t-11.5 4.5-10 5.5q-21 14-21 38 0 46 54 50h5l36-3q20-6 31-12 2 0 36-17 3-2 13-7l16-8q1-1 2-1.5t2-0.5q40-20 84-35 148-47 484-17zM240 429v-28h-90v-15h90v-34l-64-1v-15l136 1q-2-9-5.5-18t-7.5-17.5-9.5-16.5-12.5-16q7-2 19.5-6.5t19.5-6.5q19 22 29.5 46t13.5 50h-74v34h94v15h-94v35l-24 1q-21 0-21-8zM162 179h7q64 4 113 44l9 9q-3 1-4 2l-16 8q-10 5-13 7-1-2-3-4-10-10-22-18t-26-15q-12-6-23-9t-20-4q-57 0-57 44 0 29 43 38-27-2-40.5-14.5t-13.5-35.5q0-12 5.5-21.5t15.5-16.5q14-10 34-13h3q5 0 8-1z" />
<glyph unicode="&#x150;" glyph-name="Ohungarumlaut" d="M583 402q-30 28-53 28-5 0-10.5-1.5t-10.5-3.5-9.5-4.5-9.5-5.5-9-6.5-8-6.5q-7-8-280-254v-188q0-13 9-22 4-4 10-6.5t12-2.5h173q2 0 4 0.5t4 1.5 3 3q5 4 5 11v134q0 7 4 11 2 2 5 3.5t6 1.5h195q7-1 11-5 5-4 5-11v-134q0-7 4-11 2-2 5-3.5t6-1.5h177q13 0 22 9t9 22v187q-39 35-158.5 144.5t-120.5 110.5zM976 236q-1 21-20 38l-22 22q-17 17-42 40.5t-55 52.5q-29 28-61 58-16 15-31 29.5t-31 29.5q-9 9-19 18.5t-18.5 17.5-16.5 16q-12 11-22.5 21t-19.5 19q-8 8-14 13t-8 7q-28 27-67 26-20 0-38.5-8t-34.5-25q-5-4-32-29t-65-61q-38-35-82-75-22-20-42.5-38.5t-40.5-37.5q-37-34-66-61-28-25-33-30-14-14-15-36-1-11 3.5-20.5t13.5-17.5q16-14 38-13 7 0 13.5 1.5t12 3.5 10 5.5 26.5 23.5q23 21 52 48 31 28 66 61 36 32 68 62 31 29 57 53 8 7 14.5 13t11 10 7.5 7q27 24 55 25t56-25q6-5 30-27 24-23 55-52 33-31 68-64 18-17 35-33t33-30q8-7 12.5-11.5t11-10.5 11.5-10.5 10-9.5 10-9q22-21 27-24 13-12 35.5-13t39.5 14q15 14 14 36z" />
<glyph unicode="&#x151;" glyph-name="ohungarumlaut" horiz-adv-x="1000" d="M990-143l-71-71q-4-4-9-6.5t-10-3-10 0-10 3-9 6.5l-143 143q-10 10-10 24t10 23l4 4-67 67q-1 1-4 6-112-90-255-90-110 0-203.5 54.5t-148 148-54.5 204 54.5 204 148 148 204 54.5 204-54.5 148-148 54.5-203.5q0-143-90-255 5-3 6-4l67-67 4 4q3 3 7 5.5t8 3.5 8.5 1 8.5-1 8-3.5 7-5.5l143-143q18-18 6-40-3-5-6-8zM406 619q-68 0-125.5-33t-90.5-91-33-125.5 33-125 90.5-91 125.5-33.5 125.5 33.5 91 91 33.5 125.5q0 103-73 176t-177 73z" />
<glyph unicode="&#x152;" glyph-name="OE" horiz-adv-x="1000" d="M529 776q29 0 57.5-6.5t53.5-17.5 44.5-25 30.5-28q26-32 38-70.5t17-73.5q5-40 5-81 7-5 11-13 4-7 6.5-18t0.5-27q-2-21-8.5-33.5t-14.5-19.5q-9-8-19-11-5-17-10-32-5-13-11.5-25.5t-14.5-19.5q-19-15-31-25.5t-16-35.5q-3-15-2-30.5t8.5-31 23-29.5 43.5-25q25-10 54.5-18t57.5-18.5 49.5-26 30.5-42.5q5-16 7.5-39.5t2.5-47.5-3.5-45-10.5-32q-5-7-28.5-14t-58-13.5-77-11.5-85.5-8.5-82.5-5.5-68.5-2-67.5 2-79.5 5.5-81.5 8-73.5 9.5-56 10-29 10q-10 8-15.5 49t4.5 106q5 37 29.5 56.5t57 31 67.5 20.5 62 26q21 13 32 25t16 24 5 25-1 29q-2 23-16 36.5t-31 27.5q-8 7-14 19.5t-11 25.5q-5 15-10 32-7 2-14 7-6 5-13 14t-12 26q-6 17-4.5 31t5.5 24q4 11 13 21-1 38 4 76 4 32 14.5 69t31.5 66q19 28 42.5 45.5t48 27.5 49 13.5 47.5 3.5z" />
<glyph unicode="&#x154;" glyph-name="Racute" d="M806 405q31 0 59.5 12t49.5 32.5 33 49 12 60.5q0 63-45 108.5t-109 45.5q-42 0-77.5-21t-56-56.5-20.5-76.5q0-10 2-22l-324-125q-46 49-112 49-64 0-109-45.5t-45-108.5q0-42 20.5-77.5t56-56 77.5-20.5q49 0 89 28l219-146q-14-31-14-64 0-64 45-109t109-45 109 45 45 109q0 41-20.5 76.5t-56 56.5-77.5 21q-63 0-107-44l-212 141q25 39 25 85 0 10-1.5 19.5t-3.5 19-6 18.5l311 119q20-35 56-56.5t78-21.5z" />
<glyph unicode="&#x158;" glyph-name="Rcaron" horiz-adv-x="1000" d="M500 714q91 0 170.5-34.5t139-93.5 94-139 34.5-170q0-91-34.5-170.5t-94-139-139-94-170.5-34.5q-90 0-170 34.5t-139 94-93.5 139-34.5 170.5q0 90 34.5 170t93.5 139 139 93.5 170 34.5zM659 497q-29 0-49.5-24t-20.5-59q0-34 20.5-58t49.5-24 49 24 20 58q0 35-20 59t-49 24zM335 495q-28 0-48-24t-20-58q0-35 20-59t48-24 47.5 24 19.5 59q0 34-19.5 58t-47.5 24zM748 152q1 2 1 7t-1.5 11-6 11-12.5 8q-23-28-57-50-29-19-73.5-34.5t-104.5-15.5-102 15.5-71 34.5q-33 22-56 50-8-2-12-7t-6-11-2-11 1-8q1-1 0.5-1.5t0.5-1.5q9-27 32-50.5t56-41 74.5-27 87.5-9.5q91 0 157 33t90 87q0 2 1 4t3 7z" />
<glyph unicode="&#x159;" glyph-name="rcaron" horiz-adv-x="1000" d="M970 431q38-52 57-111t26.5-115.5 7-105.5-0.5-80q0-6-1-14.5t-3.5-17-6-14.5-9.5-6h-41q0 34-10.5 58t-28 39-41 22-49.5 7-48-10-38.5-27-26-39.5-9.5-47.5h-18q-18 0-31 13t-13 31v482q0 11 7.5 25.5t18.5 15.5q33 3 69-2.5t71-18.5 66-34 52-50zM954 216q12 0 21 0.5t9 12.5q0 2-0.5 3t-0.5 3q-11 49-24 94.5t-44 77.5q-20 19-43 27.5t-43.5 11-34.5 1.5-15-1q-13 0-22-9.5t-9-20.5v-91q0-40 1-89v-1q0-5 7-12t14-7h184zM622 658l2-651q0-17-11.5-28t-27.5-11h-273q0 59-30 93t-94 34q-61 0-93.5-31.5t-32.5-95.5h-23q-17 0-28 10t-11 29v520q0 24 9 47t25.5 42 38.5 30.5 48 11.5h501zM875 30q26 0 45-19t19-45q0-27-19-46t-45-19q-27 0-45.5 19t-18.5 46q0 26 18.5 45t45.5 19zM187 31q27 0 45.5-19t18.5-46q0-26-18.5-45t-45.5-19-45.5 19-18.5 45q0 27 18.5 46t45.5 19z" />
<glyph unicode="&#x15c;" glyph-name="Scircumflex" d="M938 734h-852q-22 0-40.5-10t-29.5-28-11-40v-782q0-34 24-58t57-24h859q33 0 55.5 24t22.5 58v782q0 33-25.5 55.5t-59.5 22.5zM332.5 618q51.5 0 88.5-36.5t37-87.5q0-34-17-62.5t-45.5-45.5-62.5-17q-52 0-88.5 36.5t-36.5 88 36.5 88 88 36.5zM120-109q-5 0-9.5 1t-9 3.5-8.5 5.5q-13 11-14 27.5t10 29.5l187 282q10 12 26 14t29-8l165-122 295 336q4 4 8.5 9t12 12.5 16 13 18.5 10.5 20 5 20-3 19.5-13.5 17.5-27.5v-575h-803z" />
<glyph unicode="&#x15d;" glyph-name="scircumflex" d="M945 585q-10-1-17-1-416-1-831 0-7 0-17 1-7-3-11.5-9t-4.5-14v-2q4-3 12-8t14-9 11-9q119-107 338-308 27-25 50-33t46 0 51 33q247 226 335 306 1 1 39 28v2q0 8-4 14t-11 9zM696 223q-22 20-42-1l-14-14q-6-6-18-16.5t-15-12.5q-46-40-95-40t-95 41q-10 8-19.5 17t-24 21.5-20.5 18.5q-18-15-47-38.5t-48.5-39.5-45-37.5-47.5-38.5q-6-6-101-81v-35q0-10 7-17t17-7h848q7 0 12.5 3t8.5 8.5 3 12.5v42q-149 118-165 131-59 48-99 83zM64 500v-438q107 89 252 210-118 107-252 228zM960 69v431q-107-97-249-226 175-144 249-205z" />
<glyph unicode="&#x161;" glyph-name="scaron" horiz-adv-x="1000" d="M964 70q-17 9-15 29.5t26 45.5q16 16 18 35t-7.5 34-25.5 22q-16 8-23.5 17.5t-2 20 25.5 18.5q29 11 28.5 54t-30.5 78q-33 38-272 23l-20-2q2 2 2 141 0 67-13.5 105.5t-36 52-58.5 12.5q-15 0-24.5-3t-16-10.5-10-16.5-7.5-27.5-6.5-36.5-9-50-14.5-63q-6-26-17-52t-24.5-48.5-28.5-43.5-30.5-38.5-30.5-32.5-27.5-26-22.5-19l-15-12-6-4v-375q10-13 26.5-24.5t29.5-17 30-11 21-7.5q5-2 29-5.5t54.5-7 60.5-6.5 50-4.5 21-1.5q4 0 11 0.5t29 2.5 43.5 4.5 50.5 6 54.5 7.5 52 9.5 45.5 11 32.5 12.5 15.5 14q8 23 3 37.5t-2.5 26 22.5 19.5q26 10 33 33.5t0.5 44.5-18.5 28zM0 279v-368q0-28 20-47.5t47-19.5h133v502h-133q-27 0-47-19.5t-20-47.5z" />
<glyph unicode="&#x162;" glyph-name="Tcommaaccent" horiz-adv-x="1000" d="M961 266q-29 13-27 28t27.5 27 32 38.5-17.5 52.5q-24 24-25.5 45t15.5 29q6 4 11.5 14t8 23 1 26-10.5 25-25 18q-20 8-23 19.5t2 26-2 36.5q-5 13-41 24.5t-83 19-96 13.5-80 8.5-33 2.5q-195-17-214-25-4-2-15.5-6t-22.5-8-24-10.5-24.5-15.5-19.5-19v-373q7-5 18-13.5t41-36.5 55-58 50.5-76 37.5-92q8-35 15-71t10-54.5 7.5-36.5 10.5-25.5 16-12 27-5.5q55-2 81.5 35t26.5 134q0 138-2 140 11-1 28-2t63-2.5 82.5 0 71.5 8 45 17.5q20 23 27.5 51.5t0.5 50.5-26 30zM7 644v-366q0-27 19.5-46.5t47.5-19.5h131v499h-131q-28 0-47.5-19.5t-19.5-47.5z" />
<glyph unicode="&#x163;" glyph-name="tcommaaccent" d="M892 190q1-2 1-5v-6q0-3-0.5-6t-1.5-6q-2-14-8-29-3-7-6.5-13.5t-7.5-12.5q-8-11-18-16t-17-5-16 3q-2 1-3.5 1.5t-3 0.5-3 0.5-3.5 1.5h-4q-2 1-4 1-12 2-25 1-3-1-6-1t-6.5-1-6.5-2l-6-2q-4-1-8-3t-7.5-4.5-6.5-5.5q-20-21-23-47t8-50q8-17-3-33-5-6-15.5-13t-23-13-26.5-9-25-3q-2 0-4.5 0.5t-5 1.5-4.5 3q-6 6-9 13h-1q-9 25-30.5 43.5t-50.5 18.5q-28 0-50.5-18.5t-31.5-43.5q-4-9-12-14-4-2-8.5-3t-9.5-1q-12 0-26 4-7 2-14 4.5t-15 5.5q-14 6-25 14-4 3-7.5 5.5t-6 5.5-4.5 6q-4 5-4 13t6 22q9 19 7 43-1 12-6 23t-15 22q-11 12-27.5 15.5t-31.5 2.5q-17 0-35-6-4-1-8-1.5t-7.5 0.5-7.5 2q-9 4-17 16-4 6-7.5 12.5t-6.5 13.5q-6 14-9 29t-2 25q3 18 17 23 24 10 44 32.5t20 50.5q0 14-5 26.5t-15 23.5q-20 21-44 31-8 3-13 12-2 5-3.5 9.5t-1.5 9.5q0 2 0.5 4.5t0.5 4.5 1 5v4l2 6q3 13 8.5 25.5t12.5 22.5 15 15q6 4 12 3 3 0 6.5-1t7.5-2q25-10 51-6 13 2 25 7.5t22 15.5 15 24q2 8 3.5 15t1.5 14q2 14 0.5 25.5t-2.5 15.5q-1 6-3 12-1 6 2 11 2 6 6.5 11t10.5 9q3 3 6.5 5t7.5 4l6 2 8 4q7 3 14 5t14 3q14 3 22 3 11 0 17-7 2-2 4-4.5t3-5 2-4.5q9-22 29.5-39t48.5-17 50.5 16 31.5 41q3 6 10 13t14 7q6 0 12-0.5t13-2.5q14-3 27-9 6-3 12-6.5t12-8.5q11-9 18-19 4-7 2-15-1-4-1.5-6.5t-1.5-4.5q-11-24-7-50t24-45.5 48.5-21.5 53.5 9q6 4 15.5 3.5t15.5-7.5q13-12 22-35 2-5 3-10l4-8 2-10t2-9.5 2-9.5q2-14-4.5-21.5t-12.5-10.5q-26-9-44-31.5t-18-51.5q0-28 15.5-48.5t39.5-29.5q6-4 10-7 9-7 12-19v0zM511 117q37 0 70 13.5t57 38.5 38 57 14 69-14 69.5-38 56.5-57 38-70 14-69-14-56.5-38-38-56.5-13.5-69.5 13.5-69 38.5-57q4-5 9.5-9.5t11-8.5 11-7.5 12-7 12.5-5.5q32-14 69-14z" />
<glyph unicode="&#x164;" glyph-name="Tcaron" horiz-adv-x="1000" d="M863 610q32 0 53-11t33-27 17-34.5 5-34.5q0-8-0.5-12t-0.5-7v-7h-71v-560q0-21-8.5-40.5t-24.5-34.5-39-24-53-9h-475q-28 0-52.5 8.5t-42 24-28 37-10.5 49.5v549h-66q-1 1-1 6-1 5-1 33 0 14 6.5 31t19.5 31.5 33 24 48 9.5h95v65q0 28 19 47.5t47 19.5h334q37 0 51.5-19.5t14.5-47.5v-66q22-1 48-1h49zM366 610h334v67h-334v-67zM333-66q34 0 34 44v495h-66v-495q0-22 7-33t25-11zM534-65q19 0 25 10.5t6 32.5v495h-66v-495q0-43 35-43zM735-62q19 0 25.5 10t6.5 32v493h-67v-493q0-42 35-42z" />
<glyph unicode="&#x167;" glyph-name="tbar" horiz-adv-x="1000" d="M500 723q93 0 174.5-35.5t142-96 96-142.5 35.5-175-35.5-174.5-96-142-142-96-174.5-35.5-175 35.5-142.5 96-96 142-35.5 174.5 35.5 175 96 142.5 142.5 96 175 35.5zM554 336q0 24-15.5 40.5t-38.5 16.5-39-16.5-16-40.5v-335q0-24 16-38.5t39-14.5 39 15 16 39zM500 460q29 0 49.5 20.5t20.5 49.5-20.5 49.5-49.5 20.5-50-20.5-21-49.5 21-49.5 50-20.5z" />
<glyph unicode="&#x169;" glyph-name="utilde" horiz-adv-x="1064" d="M281 133l-38-319 290 134 290-134-38 319 217 236-313 63-156 282-155-282-314-63z" />
<glyph unicode="&#x16a;" glyph-name="Umacron" d="M896 258q66 69 66 166.5t-66 166.5q-68 71-164 69-37-1-91.5-29.5t-90.5-57.5l-37-28q-3 2-8 6t-21.5 16-32.5 23-38.5 24.5-42.5 23-42 16-40 6.5q-93 0-159-69-19-19-32.5-42t-21.5-48-11-50.5 0-51.5 11-50.5 21.5-47.5 32.5-43l383-399z" />
<glyph unicode="&#x16d;" glyph-name="ubreve" d="M339-1q19 0 36-7t30-19.5 20-29.5 7-36-7-36-20-29.5-30-20-36-7.5q-20 0-36.5 7.5t-29.5 20-20 29.5-7 36 7 36 20 29.5 29.5 19.5 36.5 7zM755-3q19 0 36.5-7t30-19.5 20-29.5 7.5-36-7.5-36-20-29.5-30-20-36.5-7.5-36 7.5-29.5 20-20 29.5-7.5 36 7.5 36 20 29.5 29.5 19.5 36 7zM923 565q28 0 43.5-7.5t22-18.5 6-23.5-3.5-21.5-12.5-37-21.5-61.5-23.5-66.5-17.5-52q-13-40-33-55.5t-49-15.5h-525l15-90h504q48 0 48-41 0-20-9.5-34.5t-37.5-14.5h-524q-20 0-33.5 9t-22.5 23.5-14.5 31.5-8.5 32q-1 6-5.5 29t-11 57.5-14.5 77-16 85.5q-19 101-43 225h-75q-15 0-25 7.5t-16.5 18-9 22.5-2.5 22q0 20 13.5 33t36.5 13h101q20 0 32-6t19-15 10-19 5-17q2-8 4-22.5t4-29.5q3-18 6-38h684z" />
<glyph unicode="&#x170;" glyph-name="Uhungarumlaut" horiz-adv-x="1000" d="M718-10q-5 0-9 6t-6 13-3 16-1 13v5q6 6 15.5 17t27.5 43.5 23 64.5q12 0 21 12.5t13 29 0.5 34.5-14.5 27q0 1 1.5 17.5t2 29.5-1 35.5-6.5 39.5-17 37-29 33-45.5 21.5-64.5 8.5-64.5-8.5-45.5-21.5-29-33-17-37-6.5-39.5-1-35.5 2-29.5 1.5-17.5q-15-13-16-38t9.5-45 26.5-20q5-32 21.5-63t30.5-47l14-15q0-6-0.5-14.5t-5.5-23-13-15.5q-25-4-69.5-23t-93-47-84-67.5-35.5-76.5h750q0 37-35.5 76.5t-84 67.5-93 47-69.5 23zM336-28q67 42 138 66-29 42-43 87-8 6-14.5 14t-11.5 17.5-9 20.5q-12 33-9 68 2 12 5 23t9 21q-12 129 51 200 17 19 38.5 32.5t47.5 21.5q-14 138-163 138-36 0-64.5-9t-45.5-22-29-32.5-17-37-6.5-39.5-1-35.5 2-29.5 1.5-17q-11-10-14.5-27.5t0.5-34.5 13-29 21-12q13-70 66-126 0-50-19-53-54-9-142-58-134-75-140-150v-5h322q4 2 7.5 4t6.5 4z" />
<glyph unicode="&#x173;" glyph-name="uogonek" horiz-adv-x="1000" d="M505 724q93 0 175-35.5t142.5-96 96-142.5 35.5-175-35.5-175-96-142.5-142.5-96-175-35.5-175 35.5-142.5 96-96 142.5-35.5 175 35.5 175 96 142.5 142.5 96 175 35.5zM648 521q-15 0-27.5-6.5t-22.5-18-15.5-27-5.5-32.5q0-35 21-60t50-25 50 25 21 60q0 17-5.5 32.5t-15.5 27-22.5 18-27.5 6.5zM365 521q-29 0-49.5-24.5t-20.5-59.5 20.5-60 49.5-25 49 25 20 60-20 59.5-49 24.5zM508 188q-50 0-95-9.5t-81-27-61-40.5-35-50q-1-1-1-2-1-3-1-8.5t2.5-11.5 7-11 12.5-6q25 27 61 49 31 19 77.5 34.5t111.5 15.5q66 0 114-15.5t80-34.5q37-22 62-49 17 5 19.5 18.5t0.5 18.5-3 7-1 3q-26 54-98 86.5t-172 32.5z" />
<glyph unicode="&#x174;" glyph-name="Wcircumflex" horiz-adv-x="1000" d="M851 588l-50 50q-29 29-69.5 29t-68.5-29l-37-36 189-189 36 36q19 19 26 44t0 50.5-26 44.5zM325 112v51l-69 68-5-5q-11-11-18.5-25.5t-9.5-30.5l-14-49-10-6-35-165 187 32 9 18 60 19 1 4q3 2 5.5 3.5t4.5 3.5 4.5 4 4.5 4l5 5-69 69h-51zM284 259l41-41h32v-73h74v-33l41-42 322 321-189 189z" />
<glyph unicode="&#x175;" glyph-name="wcircumflex" horiz-adv-x="1000" d="M752 616l-173-295h137v-65h-160v-90h160v-67h-160v-130h-82v130h-165v67h165v90h-165v65h141l-172 295h92q121-220 147-279h2q8 24 48 98l98 181h87z" />
<glyph unicode="&#x178;" glyph-name="Ydieresis" d="M528 729q-91 0-174-35.5t-143-96-95.5-143.5-35.5-174 35.5-174 95.5-143 143-95.5 174-35.5 174 35.5 143 95.5 95.5 143 35.5 174q0 52-11.5 102.5t-33.5 95-53 83-70 69.5-83 53-94.5 34-102.5 12zM750 256q0-7-4.5-11.5t-10.5-4.5h-417q-6 0-10.5 4.5t-4.5 11.5v52q0 6 4.5 10.5t10.5 4.5h417q6-1 11-4 4-5 4-11v-52z" />
<glyph unicode="&#x179;" glyph-name="Zacute" d="M528 729q-91 0-174-35.5t-143-95.5-95.5-143-35.5-174.5 35.5-174.5 95.5-143 143-95.5 174-35.5q73 0 141.5 22.5t123.5 64 96.5 97 64 123.5 22.5 141q0 61-16 119.5t-45 107.5-70 90.5-90.5 70-107.5 45-119 16.5zM763 252q0-6-4.5-10.5t-11.5-4.5h-167v-167q0-6-4-11-2-2-5-3t-6-1h-53q-7 0-11 4-2 3-3.5 5.5t-1.5 5.5v167h-167q-6 0-10.5 4.5t-4.5 10.5v54q0 6 4.5 10.5t10.5 4.5h167v167q1 7 5 11t11 4h53q6 0 11-4 4-5 4-11v-167h167q7-1 11-4 5-5 5-11v-54z" />
<glyph unicode="&#x17a;" glyph-name="zacute" d="M925 438q-18 41-42 76.5t-54 66.5q-61 60-142 96-41 17-84.5 26t-89.5 9q-93 0-175-35t-142.5-96-95.5-143q-36-81-36-174t36-174q17-41 41-77t55-66q60-61 142-96t175-35q46 0 89.5 8.5t84.5 26.5q81 35 142 96t96 143q35 81 35 174t-35 174zM744 120q18-18 18-44t-18-44q-19-18-44-18-12 0-23.5 4.5t-20.5 13.5l-144 144-143-144q-19-18-44-18-26 1-44 18-18 18-18 44t18 44l143 144-143 143q-18 18-18 44t18 44q12 12 28 16.5t32 0 28-16.5l143-143 144 143q12 12 28 16.5t32 0 28-16.5q7-7 11.5-16t6-18.5 0-19-6-18.5-11.5-16l-144-143z" />
<glyph unicode="&#x17b;" glyph-name="Zdotaccent" d="M510 776q-105 0-199.5-40.5t-162-108.5-107.5-162.5-40-198.5 40.5-198.5 108.5-162.5 162.5-108.5 198.5-40.5 198 40.5 162.5 108.5 109 162.5 40.5 198.5-40.5 198.5-109 162.5-163 108.5-198.5 40.5v0zM835 404l-350-369q-13-13-29-16.5t-28.5 0.5-20.5 12l-222 203q-10 11-13.5 25t0 28.5 13.5 24.5q15 16 37 16t37-16l184-165 11 11q11 12 29 31.5t42 44.5 50.5 52.5 53 55.5 50.5 53 42.5 44 28.5 31l11 11q10 11 23.5 14.5t27 0 23.5-14.5q16-16 16-38.5t-16-38.5v0z" />
<glyph unicode="&#x17c;" glyph-name="zdotaccent" d="M912-9q5-15 8-38.5t3-47.5-3.5-45-10.5-31q-5-7-28-15t-57.5-15-76.5-13.5-84.5-11.5-81.5-8-68-3q-43 0-103 6t-116.5 15-99.5 18.5-52 16.5q-10 8-15.5 48.5t3.5 104.5q6 37 30.5 56t56.5 30.5 66.5 20 60.5 25.5q19 12 29.5 22.5t16 21 6.5 22 0 24.5l-86 13q-18 12-32 37-12 21-22 57.5t-10 94.5q0 48 5 102.5t24.5 104 58 89 104.5 58.5q38 13 76 13 11 1 21 1.5t21 0.5q49 0 88-20t68-52.5 48.5-73 31.5-82 16.5-80 2.5-65.5q-2-42-12.5-75t-21.5-57q-13-28-29-50l-99-16q-2-27 12-53.5t62-46.5q24-10 53.5-17.5t57-17.5 49-26 29.5-42z" />
<glyph unicode="&#x181;" glyph-name="uni0181" horiz-adv-x="1000" d="M632 77q-36-25-77.5-38t-85.5-12q-8 0-23 1-2 0-9 1l-18 3q-1 0-10 2-11 3-17 5-1 0-4 1t-4 1q-3 1-6.5 2.5t-6.5 2.5l-6 2q-1 1-3 1l-1 1-11 6-10 4-1 1q-36 19-64 47 0 1-1 1-9 10-16 19-2 2-3 4-61 76-61 173h73l-117 176-118-176h74q0-113 64-207l2-2v-1q2-3 4-5.5l6-7.5 3-4q1-2 3-4t2-3q8-9 21-23 2-1 2-2 37-37 83-62l2-1q13-7 27-13 1-1 3-2t4-1q8-3 23-9l12-4q10-3 21-5 13-3 14-3 1-1 2-1 3-1 4-1 4 0 21-2 5-1 7-2 20-1 37-1 115 0 209 66 15 11 18.5 28.5t-7.5 32.5q-10 15-28 18.5t-33-7.5zM839 305q0 38-8 75t-22 70-35 63l-1 1v1q-7 9-17 21 0 1-0.5 1.5t-0.5 1.5q-57 68-137 103-1 0-2.5 0.5t-2.5 0.5l-26 10q-8 3-9 3-9 3-23 6-2 0-4 1t-4.5 1.5-4.5 0.5q-1 0-3 0.5t-3 0.5q-2 1-3.5 1t-3.5 0.5-3 0.5h-4q-2 0-4 1-2 0-5.5 0.5t-6.5 0.5q-12 1-29 2h-6q-115 0-209-66-10-7-15-18t-4-22.5 8-21.5q11-15 29-18t32 8q73 51 162 50 13 0 25-2h7q6-1 10.5-2t9.5-2q1 0 8-1 12-3 19-5l6-2q2-1 3.5-1.5t3.5-1 3.5-1 3.5-1.5 3.5-1.5 3.5-1.5h1l1-1q62-26 105-79 31-37 47.5-82t16.5-95h-74l118-176 117 176h-73z" />
<glyph unicode="&#x186;" glyph-name="uni0186" horiz-adv-x="1000" d="M140.5 628q-26.5 0-45-18.5t-18.5-45 18.5-44.5 44.5-18q13 0 25 5t20.5 13 13.5 20 5 25q0 26-18.5 44.5t-45 18.5zM925 631h-623q-11 0-19-7.5t-8-18.5v-72q0-7 3.5-13t9.5-9.5 14-3.5h623q7 0 13 3.5t9.5 9.5 3.5 13v72q0 5-2.5 10t-5.5 8.5-8 5.5-10 2zM925 356h-623q-11 0-19-7.5t-8-18.5v-71q0-11 8-18.5t19-7.5h623q5 0 10 2t8 5.5 5.5 8 2.5 10.5v71q0 11-8 18.5t-18 7.5zM925 81h-623q-11 0-19-7.5t-8-18.5v-71q0-6 2.5-10.5t6-8 8-5.5 10.5-2h623q10 0 18 7.5t8 18.5v71q0 5-1.5 9t-4 7-5.5 5.5-7 3.5-8 1zM140 353q-12 0-24-5t-20.5-13.5-13.5-20.5-5-24q0-17 8.5-31.5t23-23 31.5-8.5q27 0 45.5 18.5t18.5 44.5q0 17-8.5 31.5t-23 23-32.5 8.5zM140.5 78q-26.5 0-45-18.5t-18.5-44.5 18.5-44.5 45-18.5 45 18.5 18.5 44.5-18.5 44.5-45 18.5z" />
<glyph unicode="&#x192;" glyph-name="florin" horiz-adv-x="1000" d="M278 548q-14 14-21 32t-7 36.5 7 36 21 31.5q28 29 67 29t67-29l371-374q14-12 20-30t5-38-9-39.5-22-33.5l-365-368q-28-29-67-29t-67 29q-14 14-21 31.5t-7 36 7 36.5 21 32l302 305z" />
<glyph unicode="&#x193;" glyph-name="uni0193" horiz-adv-x="1000" d="M782 549l-302-306 302-306q14-14 21-32t7-36.5-7-36-21-31.5q-28-29-67-29t-67 29l-365 368q-14 14-22 33.5t-9 39.5 5 38.5 20 30.5l371 374q28 28 67 28t67-28q14-14 21-32t7-36.5-7-36-21-31.5z" />
<glyph unicode="&#x194;" glyph-name="uni0194" horiz-adv-x="1000" d="M834 54l-306 302-306-302q-14-14-32-21t-36.5-7-36 7-31.5 21q-29 28-29 67t29 67l368 365q14 14 33.5 22t39.5 9 38.5-5 30.5-20l374-371q28-28 28-67t-28-67q-14-14-32-21t-36.5-7-36 7-31.5 21z" />
<glyph unicode="&#x195;" glyph-name="uni0195" horiz-adv-x="1000" d="M837 557q28 28 67.5 28t67.5-28q29-28 29-67t-29-67l-374-372q-12-14-30-19.5t-38-4.5-39.5 8.5-33.5 21.5l-368 366q-29 28-29 67t29 67q14 14 31.5 21t36 7 36.5-7 32-21l306-302z" />
<glyph unicode="&#x19a;" glyph-name="uni019A" d="M192 328h640v-128h-640v128zM448 584h128v-640h-128v640z" />
<glyph unicode="&#x19b;" glyph-name="uni019B" d="M192 328h640v-128h-640v128z" />
<glyph unicode="&#x19d;" glyph-name="uni019D" d="M338-24q19 0 36-7t29.5-19.5 20-29.5 7.5-36-7.5-36-20-29.5-29.5-20-36-7.5q-20 0-37 7.5t-29.5 20-20 29.5-7.5 36 7.5 36 20 29.5 29.5 19.5 37 7zM754-26q19 0 36.5-7t30-19.5 20-29.5 7.5-36-7.5-36-20-29.5-30-20-36.5-7.5-36 7.5-29.5 20-20 29.5-7.5 36 7.5 36 20 29.5 29.5 19.5 36 7zM922 542q28 0 43.5-7.5t22-18.5 6-23.5-3.5-21.5-13-37-21.5-61.5-23-66.5-18.5-52q-13-40-32.5-55.5t-48.5-15.5h-525l14-90h505q48 0 48-41 0-20-9.5-34.5t-37.5-14.5h-524q-20 0-33.5 9t-22.5 23.5-14.5 31.5-8.5 32q-1 6-5.5 29t-11 57.5-14.5 77-16 85.5q-19 101-43 225h-75q-15 0-25 7.5t-16.5 18-9 22.5-2.5 22q0 20 13.5 33t36.5 13h101q20 0 32-6t19-15 10-19 5-17q2-8 4-22.5t4-29.5q3-18 6-38h684zM847 574h-366l132 132q23 23 50.5 23.5t50.5-22.5z" />
<glyph unicode="&#x19e;" glyph-name="uni019E" d="M328-8q19 0 36-7t29.5-19.5 20-29.5 7.5-36-7.5-36-20-29.5-29.5-20-36-7.5q-20 0-37 7.5t-29.5 20-20 29.5-7.5 36 7.5 36 20 29.5 29.5 19.5 37 7zM744-10q19 0 36.5-7t30-19.5 20-29.5 7.5-36-7.5-36-20-29.5-30-20-36.5-7.5-36 7.5-29.5 20-20 29.5-7.5 36 7.5 36 20 29.5 29.5 19.5 36 7zM912 558q28 0 43.5-7.5t22-18.5 6-23.5-3.5-21.5-13-37-21.5-61.5-23-66.5-18.5-52q-13-40-32.5-55.5t-48.5-15.5h-525l14-90h505q48 0 48-41 0-20-9.5-35t-37.5-14h-524q-20 0-33.5 9t-22.5 23.5-14.5 31.5-8.5 32q-1 6-5.5 29t-11 57.5-14.5 77-16 85.5q-19 101-43 225h-75q-15 0-25 7.5t-16.5 18-9 22.5-2.5 22q0 20 13.5 33t36.5 12h101q20 0 32-6t19-15 10-18.5 5-16.5q2-8 4-22.5t4-29.5q3-18 6-38h684zM875 469l-626 2 35-181 523-1z" />
<glyph unicode="&#x1ce;" glyph-name="uni01CE" horiz-adv-x="1000" d="M290-107q-10-11-10-25.5t10-25.5q5-5 11.5-7.5t13.5-2.5 13.5 2.5 11.5 7.5l404 408q10 11 10 25.5t-10 25.5l-404 407q-10 11-25 11t-25-10.5-10-25.5 10-25l368-383z" />
<glyph unicode="&#x1d4;" glyph-name="uni01D4" d="M758 272q-17 3-22.5 10t-1.5 13l4 5q1 3 3.5 7.5t7 17.5 5 26-5 29-18.5 29q-12 11-29 17t-35.5 6-37.5-2.5-36-7.5-31-9.5-21-7.5l-8-3q-10-3-17-4.5t-12-1.5-7 3-3 5.5-0.5 8 1.5 10 3 13 3 13.5q0 17-2.5 31.5t-12.5 31-26.5 25-47 8-71.5-14.5q-119-40-242-186l-24-29q-23-32-39.5-64t-23-54-9-42.5-2.5-26.5v-11q7-55 34.5-98t65.5-70 89.5-46 99-27.5 100.5-12.5q87-7 179.5 13t173 69.5 113.5 117.5q14 30 18 56.5t0 46.5-14.5 37-23.5 28.5-28 20.5-27 13.5-22 6.5zM401-84q-125-6-214 48t-89 136 88 140.5 215 64.5q129 6 216.5-41.5t87.5-127.5q0-82-88-147-91-67-216-73zM368 233q-149-17-149-174v-5q0-4 2-13.5t6.5-18.5 14-19.5 22.5-17.5q36-19 73.5-24t70 2.5 60.5 24.5 48 42q15 19 20.5 47.5t-2.5 57.5-26.5 53.5-55 37-84.5 7.5zM325 16q-11-1-21.5 1.5t-18.5 7.5-12.5 13.5-4.5 17.5q0 20 16 36.5t38 19.5q27 2 43.5-10.5t16.5-32.5q0-19-16.5-34.5t-40.5-18.5zM425 99q-4-3-8.5-4t-8.5-1-7.5 2-5.5 6q-4 6-2 15.5t9 15.5q5 3 10 4.5t9 1 7-2.5 6-6q2-5 2-10.5t-3-11-8-9.5zM840 339q5 0 8.5 1t7 3 6 5 4 6 2.5 7v3q14 128-89 149-33 6-63 1-11 0-19-8t-8-19 8-19 19-8q37 7 58 0.5t29.5-22 10.5-32 1-28.5l-2-12q0-8 3.5-14t10-9.5 13.5-3.5zM820 655q-58 13-138-2l-2-1h-1l-1-1q-9-2-15.5-7.5t-10.5-13.5-4-17q0-5 1-9t3-8 5-7.5 6.5-6 7.5-4.5 8.5-3 8.5-1q3 0 7 0.5t13.5 3 16.5 4.5q4 2 15.5 2t28.5-2 38-8.5 41.5-16.5 41-28.5 34.5-42.5q31-68 13-131-8-19-8-38 0-4 1-8.5t3-8 4.5-6.5 6-5 7.5-3.5 8.5-2.5 9.5-1q17 0 26 6t12 27h1q21 64 16 115.5t-23 89.5-50 66-64 44.5-67 24.5z" />
<glyph unicode="&#x1d5;" glyph-name="uni01D5" d="M505 759q90 0 168.5-34t137-92.5 92.5-137 34-167.5q0-90-34-168.5t-92.5-137-137-92.5-168.5-34h-13q-6 0-12 1h-4q-15 2-25.5 13.5t-10.5 27.5q0 17 12 29t29 12q4 0 12-2l1 1h11q72 0 136 27.5t111.5 75 75 111.5 27.5 136-27.5 136-75 111-111.5 74.5-136 27.5-136-27.5-111-74.5-74.5-111-27.5-136q0-74 29-140 6-9 6-22 0-17-12-29t-29-12q-11 0-19.5 4.5t-14.5 12.5q-20 42-31 88.5t-11 97.5q0 89 34 167.5t92.5 137 137 92.5 167.5 34zM705 328q0-41-15.5-77.5t-42.5-63.5-63.5-43-78.5-16q-34 0-64.5 10.5t-55.5 30.5q-11-13-28-32.5t-36-43.5-39-50.5-37-52.5q-25-38-46.5-77.5t-37.5-72.5q-19-39-35-76l-103 4q15 43 37 90 19 40 46.5 89t65.5 98q21 27 44 54t45 51 41 43.5 32 32.5q-28 47-28 102 0 41 15.5 77.5t42.5 63.5 63.5 42.5 77.5 15.5q42 0 78.5-15.5t63.5-42.5 42.5-63.5 15.5-77.5z" />
<glyph unicode="&#x20c;" glyph-name="uni020C" d="M911 115q-5 31-17 61t-25.5 50.5-26.5 37-21 24.5l-8 9q2 15 2 29.5t-1.5 25-3.5 19.5-5 15-6 11-6 8l-5 5q-2 2-4 3l-1 1q-2 62-18.5 112.5t-39.5 81.5-54 53.5-57 32.5-54 15.5-38.5 6-17.5 0.5q-6 0-16.5-0.5t-39-6-54-15.5-57-32.5-54.5-53.5-39.5-81.5-17.5-112.5q-2-1-4.5-3t-9.5-10-10.5-20.5-7-34 0.5-49.5l-9-9q-5-5-19.5-23.5t-26.5-38-24.5-50-17.5-61.5q-1-4-1-10t1-22 3.5-28 9-21 15.5-8 25 17 37 50q23-62 64-117-3-1-8-3.5t-17.5-10-21.5-17-16-26-5-34.5q0-2 0.5-4.5t3-10 8-14 17.5-14.5 28-13.5 42.5-9 58.5-2.5q13 1 32.5 4t59.5 17 55 36h30q15-22 52-36t66-17l29-4q45-1 78 5.5t47.5 15.5 23 21.5 9 17.5 0.5 8q2 18-4.5 34t-16.5 26-20.5 17.5-18.5 10.5l-8 3q12 15 23 33t18 32 12.5 26 8.5 19l2 7q21-34 37-50.5t25.5-16.5 16 7.5 8.5 21.5 3.5 27.5 1.5 23.5z" />
<glyph unicode="&#x232;" glyph-name="uni0232" horiz-adv-x="1000" d="M700 482l16-20 10-10 8-10 10-10q20-23 44-50 12-14 24.5-28t25.5-28q32-38 53-67 4-5 7-10t6-9l6-10q3-4 5.5-8.5t5-8.5 4.5-8q12-25 16.5-45.5t4.5-41.5v-64q0-29-10-53t-27-41-39.5-26.5-46.5-9.5h-608q-26 0-50 9t-42.5 25-29 39-10.5 51v76q0 12 1 23t3 22q1 7 3.5 14.5t5.5 15.5 7 16q12 23 32.5 50t52.5 60q5 5 10 10.5t10.5 11 10.5 11.5 10.5 11.5 11.5 10.5q25 27 48 51 28 29 49 51h362zM515 109q25 0 48 10t39.5 26.5 26.5 40 10 49-10 48-26.5 39.5-39.5 26.5-48.5 9.5-48.5-10q-12-5-22-11.5t-18-15-15-18-11.5-21-7-23.5-2.5-25q0-25 9.5-48.5t26.5-40 40-26.5 49-10zM1008 601v-62q0-25-18.5-43t-43.5-18h-123q-26 0-44 18-5 6-9 12.5t-6 14.5-2 16v62h-493v-62q0-6-1.5-12t-3.5-11.5-5.5-10.5-7.5-9q-18-18-43-18h-123q-26 0-44 18t-18 43v64q0 12 5 20 3 5 7 8.5t8 7.5q2 1 3 2l4 2 2 2 4 2t3.5 2 3.5 2q11 5 22 12 10 6 48 26.5t95.5 42 131 38 156.5 16.5q94 0 168.5-16.5t128.5-38.5q28-11 50-21t38-21q33-20 45-26 6-3 11.5-6t10.5-6q4-2 7.5-4t6.5-4l6-4q9-7 14-16 2-2 3.5-5.5t2-7 0.5-7.5v-2z" />
<glyph unicode="&#x2001;" glyph-name="uni2001" d="M792 414q-13 13-31 13t-31-13l-195-195-194 195q-13 13-31 13t-31-13-13-31.5 13-31.5l225-225q13-13 31-13 6 0 11.5 1.5t10.5 4.5 10 7v1h1l224 224q9 9 12 20.5t0 22.5-12 20z" />
<glyph unicode="&#x2004;" glyph-name="uni2004" horiz-adv-x="1000" d="M78 407q0 27 9 38.5t40 11.5h128v-500h-55q-22 0-43.5 0.5t-29.5 0.5q-27-1-38 9t-11 38v144q0 11 3.5 16.5t14.5 7.5q4 0 11 3t14 9.5 12 17 5 25.5q0 23-12.5 36t-26.5 15q-11 2-16 6.5t-5 15.5v106zM161 502v26q0 20 15.5 37t33.5 17h138v-80h-187zM976 285q-8-2-11.5-8.5t-3.5-14.5 3.5-15.5 11.5-10.5 12.5-12 5-19-2.5-19-9-13q-20-12-20-27t20-30q4-3 7.5-11t3.5-16-4-14-14-6h-54q-6 0-6.5 1t1.5 3.5 5 5.5 5 7q5 14 0 24t-17 17q-8 4-11.5 12.5t-3 17.5 3.5 16 9 10q8 3 12 11t4 17-3 16.5-9 10.5q-8 4-12.5 12t-4.5 18 4 19.5 13 15.5q6 4 10 11t4.5 15-3 15.5-12.5 12.5q-10 5-14.5 14.5t-4.5 19.5 4.5 19 12.5 14q17 9 18.5 24.5t-2.5 28.5q-3 10-12 18t-23 8h-480v79h563q7 0 12-5t6.5-12-1-14.5-9.5-12.5q-6-5-10.5-13t-5-16.5 2.5-17 11-12.5q11-6 16.5-16.5t5.5-21-5.5-19.5-15.5-13q-11-4-16-11.5t-5.5-16.5 4-17.5 14.5-14.5 14.5-16 4-20-5-18.5-13.5-9.5zM846 300q-12-3-18.5-11.5t-7-17.5 5-18 16.5-13q10-4 15-12t5.5-17-3.5-17-12-12q-25-12-26-29t19-27q9-4 14.5-12.5t6-18-3.5-17-13-10.5q-12-3-18.5-11t-7-17 5-18 17.5-15q8-4 11.5-12.5t2.5-16.5-5.5-14.5-12.5-6.5h-523v500h529q8 0 12.5-6.5t5-14.5-3.5-16-13-11-14.5-10-6.5-15.5 4-16.5 17-12q9-4 14.5-12t6-16.5-4-16-14.5-10.5zM605 233q-5 0-10.5 1t-2.5 6q1 2 9.5 14t19 25.5 19.5 25.5 11 15q5 8-6 19-2 2-8 6t-11 6q-8 3-11.5 1t-8.5-9q-2-3-10-14.5t-17-24.5-16.5-23.5-8.5-12.5q-2-4-7.5-3t-7.5 5q-1 2-9 11.5t-17 21.5-17.5 22.5-11.5 14.5q-9 17-19 11-7-4-12.5-8.5t-10.5-7.5q-10-7-3-18 17-20 30-37 11-14 21-27t12-15q2-4-4-4h-12q-5 0-14.5-0.5t-17.5 0.5q-8 0-13-4t-3-10q1-4 1-12v-12q0-5 3-5.5t7-0.5h58q12 0 12-5v-19q0-5-2-5h-67q-6 1-8-3t-3-9 0-9.5 1-7.5q0-13 13-13h60q5 0 6-1.5t1-6.5q1-5 0.5-18t-0.5-17q0-11 13-11h32q8 0 8 5v40q0 10 9 10h9q7 0 15.5 0.5t16.5 0.5h13q14 0 14 10v22q0 9-10 9h-58q-10-2-10 4 0 3-0.5 7.5t-0.5 8.5 3.5 6 7.5 2h59q10 0 10 7v24q0 4-3.5 8t-8.5 4h-34z" />
<glyph unicode="&#x2005;" glyph-name="uni2005" horiz-adv-x="1000" d="M311 219h129l-2-132h-125zM626 213h125v-126h-125v126zM438 526h188v-126h-188v126zM872 713q28 0 51.5-10.5t41-28.5 27.5-42.5 10-52.5v-607q0-28-10-52.5t-27.5-42.5-41-28.5-51.5-10.5h-675q-28 0-52.5 10.5t-42.5 28.5-28.5 42.5-10.5 52.5v607q0 28 10.5 52.5t28.5 42.5 42.5 28.5 52.5 10.5h675zM500-34q-1 5-1.5 28.5t-0.5 55.5v70q0 37 0.5 69.5t1 56 1.5 29.5q-6-1-24.5-1.5t-44-1-54-0.5-54.5 0.5-46 1-27 1.5q1-5 1.5-28t1-55.5 0.5-70-0.5-71-1-58-1.5-30.5h60l2 63h125l2-59h60zM376 338q10 1 35 2t57.5 1.5 68.5 0.5 67.5-0.5 54.5-1 30-1.5q-1 5-1.5 24t-1 45-0.5 55.5 0.5 55.5 1 45 1.5 24q-7-1-30.5-1.5t-55.5-1-68-0.5h-69q-32 0-56.5 1t-33.5 2q1-4 1.5-22.5t0.5-44.5v-113q0-27-0.5-46t-1.5-24zM813-31q-1 5-1 28v195q0 32 0.5 55t1.5 28q-7-1-26-1.5t-45-1-55-0.5h-54q-25 0-44.5 0.5t-25.5 1.5q1-5 1.5-28.5t0.5-55.5v-141q0-33-0.5-57t-1.5-30h58l4 63h125l3-56h59z" />
<glyph unicode="&#x2006;" glyph-name="uni2006" horiz-adv-x="1000" d="M489 180q23-11 39-24t17-28 1-34v-32q-1-12-8-23.5t-27-24.5q-10-6-27-14.5t-41.5-15.5-57-12-72.5-5-71.5 5-55 11.5-40.5 13.5-28 13q-23 11-36.5 23t-15.5 22q-2 9-2.5 30.5t0.5 37.5q1 15 11.5 27.5t34.5 24.5q9 4 19 5-4 2-7.5 3.5t-7.5 3.5q-23 11-36.5 23.5t-15.5 21.5q-2 10-2.5 31.5t0.5 36.5 11.5 27.5 34.5 24.5q5 3 12 4t15 2q-5 2-9.5 4t-9.5 4q-23 11-36.5 23.5t-15.5 22.5q-2 9-2.5 30.5t0.5 36.5q1 16 12 27.5t34 24.5q17 11 67.5 22.5t123.5 11.5q66 0 115.5-9t72.5-20 39-24 17-27q1-15 1-35v-31q-1-12-8-23.5t-27-24.5q-5-3-10.5-6.5t-13.5-6.5q1-1 2-1 23-10 39-23.5t17-28.5q1-14 1-33v-33q-1-12-8-23t-27-25q-4-2-8.5-5t-10.5-6h1zM104 461q-5-16 3.5-22t19.5-11q5-3 11.5-5t11.5-4q6-2 12-3l-1-36q0-11 8-14.5t17-3.5 15 1 7 12v31q7-1 22-2.5t28-2.5q5 0 9.5-0.5t8.5-0.5h7l1-39q0-11 7-13.5t15-2.5q20 1 23 2.5t3 12.5v39q6 1 12 1h12q6 0 12 1 14 2 20 3 4 1 5 2v-35q0-13 22-13 13 1 17.5 4.5t4.5 8.5v41l12 3q5 2 12.5 4t15.5 5q25 9 22 25-2 7-6 9.5t-9 2.5-11.5-2-12.5-3q-32-6-75.5-10t-83.5-4q-19 0-40 2t-41 5-37 6.5-28 7.5q-4 1-11.5 3t-16 2.5-15-1-8.5-6.5zM104 282q-7-13 2.5-21t20.5-13q5-3 11.5-4.5t11.5-3.5q6-2 12-3l-1-37q0-11 8-14.5t17-3.5 16.5 1.5 8.5 11.5v31q7-1 20.5-2.5t26.5-1.5q5 0 9.5-0.5t8.5-0.5h7v-43q0-9 5.5-10.5t17.5-1.5q24-2 24 12v40q6 1 13 2 6 1 12.5 1t12.5 1q14 2 20 3 4 1 5 1v-35q0-14 22-12h1q5 1 13 3 8 4 8 12v39l12 3q5 2 12.5 3.5t15.5 4.5q24 10 22 25-2 11-14.5 10.5t-24.5-2.5q-16-3-31.5-6t-33-5-38.5-3.5-48-1.5q-59 0-95.5 7.5t-58.5 14.5q-4 1-11.5 3t-15.5 2.5-14.5-0.5-9.5-6zM481 67q24 8 22 25-2 11-14.5 10t-24.5-3q-32-5-68.5-10t-90.5-3q-19 0-40.5 1.5t-42 3.5-37.5 5.5-28 6.5q-4 1-11 3t-14.5 3.5-14 0.5-9.5-5q-7-13 2.5-21t20.5-13q5-3 11.5-4.5t11.5-3.5q6-2 12-3v-38q0-11 7.5-14t16.5-3 16.5-0.5 7.5 10.5q0 2 0.5 8t0.5 12v14q7-1 20.5-2.5t26.5-1.5q5-1 10-1h15l1-43q1-8 7.5-10t14.5-3q11 0 17.5 1.5t6.5 12.5v41h13q6 0 12.5 0.5t12.5 1.5q12 0 20 2 4 1 5 2v-35q0-14 22-12 13 0 17.5 3.5t4.5 8.5v42l12 3q5 2 12.5 3.5t15.5 4.5zM971 259q23-10 39.5-23.5t17.5-27.5q1-15 1-34.5t-1-31.5-7.5-23.5-26.5-24.5q-20-14-69.5-30.5t-129.5-16.5q-40 0-71 4.5t-54.5 11-40.5 14-28 12.5q-23 11-37 23.5t-16 22.5q-2 9-2 31v36q1 16 11.5 28.5t34.5 23.5q12 6 27 6-11 4-18 9-23 11-37 23.5t-16 21.5q-2 10-2 32v36q1 15 12 26.5t34 25.5q18 10 68 22t123 12q66 0 115.5-9t72.5-20 39.5-24 17.5-28q1-14 1-33.5t-1-32.5q-1-12-7.5-23t-26.5-25q-5-3-10.5-6t-13.5-7zM589 361q-5-11 4-18.5t20-12.5q5-3 11.5-4.5t11.5-3.5q6-2 12-3v-37q0-11 7.5-14.5t16.5-3.5q10 0 17.5 1.5t7.5 11.5v31q7-1 18.5-3t25.5-4q3 0 7.5-0.5t9.5-0.5q5-1 10-1v-37q0-8 8.5-11.5t16.5-2.5q11 0 17 2t6 11v39q7 0 14 1 6 1 12.5 1.5t12.5 1.5q12 2 17 3 4 1 7 1v-35q0-8 6-10t17-2 16 3.5 5 8.5v42l12 3q5 2 12.5 3.5t15.5 4.5q24 10 22 25-2 11-14.5 11t-24.5-3q-8-3-26.5-5.5t-41.5-5-47-4-44-1.5q-19 0-40.5 2t-41.5 5-37 6.5-28 6.5q-4 1-11 3t-15 2.5-15-0.5-10-7zM963 147q24 8 22 25-2 10-14.5 9.5t-24.5-2.5q-32-6-72-11.5t-87-5.5q-49 0-88 8t-61 16q-3 1-10 2.5t-14.5 2.5-14-0.5-9.5-6.5q-7-13 2.5-20.5t20.5-12.5q5-3 11.5-5t11.5-4q6-2 12-3v-36q0-11 7.5-14.5t16.5-3.5q10 0 16 0.5t7 11.5v32q7-1 22-2.5t28-2.5h20v-43q1-9 7.5-10.5t14.5-1.5q11-1 20.5 1t9.5 13v37q6 1 13 2 6 1 12.5 1t12.5 1q13 1 19 3 4 1 5 2v-36q0-8 6-10t17-2q13 1 17 4.5t4 8.5v42q5 0 12 2 5 2 12.5 4t15.5 5z" />
<glyph unicode="&#xe600;" glyph-name="uniE600" horiz-adv-x="1000" d="M920 54q-16 0-19 16-1 1-1.5 4t-3 10-5.5 15-9 19.5-12.5 22.5-16.5 24-21 25q-27 28-61 49.5t-74 36.5-86.5 23.5-97.5 9.5v-162q0-6-3-10.5t-8-7-11-2.5-10 4l-383 277q-4 3-6.5 7.5t-2.5 9.5q0 10 9 16l383 279q10 7 21 1.5t11-17.5v-173q8 0 16.5-0.5t20.5-2 24-3.5 27-5 29-7q60-15 109-42.5t87-66.5q118-119 114-330 0-8-5-13.5t-13-6.5h-2zM493 350q33 0 64-3t60.5-8 56.5-13 52-18q40-17 74.5-40t61.5-53q17-18 31-38-20 122-95 199-38 38-86.5 64t-94.5 35.5-72 13-47 3.5q-3 0-5-1-8 0-14 6t-6 14v153l-330-239 330-239v144q0 2 0.5 4.5t2 5 3 4.5 3.5 3l6 2q2 1 5 1z" />
<glyph unicode="&#xe601;" glyph-name="uniE601" d="M230-223h564v102h-564v-102zM231-18h562v384h231l-530 409-494-409h231v-384z" />
<glyph unicode="&#xe602;" glyph-name="uniE602" d="M748-157v3q0 1 0.5 6t0 10.5-2 14-4 17.5-6.5 20-10 22-14.5 24-19.5 26q18 51 32.5 105.5t22 94.5 12 75.5 6 51 1.5 18.5q5-1 14-4t32-15 40-28.5 31.5-46.5 14.5-67q0-62-15.5-119t-37.5-93-44-63.5-38-39.5zM383-78q-2 5-5 15.5t-12 42.5-17.5 63-18.5 72.5-17.5 77-12.5 71.5-5 60q0 38 4 73.5t11 69.5h404q15-71 15-143 0-52-24.5-160.5t-39.5-159.5-24-82h-258zM512 402q-34 0-58-24t-24-58q0-17 6.5-32.5t17.5-26.5 26-17.5 32-6.5q34 0 58 24.5t24 58.5q0 22-11 41t-30 30-41 11zM494 769v112h32v-109q19-14 38.5-33t47.5-52 53.5-83 40.5-107h-389q11 38 25.5 73t31 62 33 49.5 34 40 29.5 28 24 19.5zM276-157q-6 4-16 12.5t-36 38.5-46 64.5-36 92-16 119.5q0 37 14 67t32.5 46.5 39 28 32.5 15.5 14 4q1-18 4.5-50.5t22-123.5 47.5-171q-30-35-44-70.5t-13-54.5zM566-173l-27 26-28-89-34 89-23-46-34 84h184z" />
<glyph unicode="&#xe603;" glyph-name="uniE603" d="M510 649q-117 0-199.5-81t-82.5-195.5 82.5-195.5 199.5-81 200 81 83 196q0 117-87 199-82 77-196 77zM184 267v255q-5 0-10-1 44 96 134.5 155t201.5 59 202-59 135-155l-11 1v-255q54 0 92.5 37t38.5 90q0 36-18 65.5t-49 46.5q-12 33-29.5 64t-40.5 58.5-50 50.5-58 41-65 31-71 19.5-76 6.5q-133 0-240-75.5t-149-195.5q-31-17-49-46.5t-18-65.5q0-34 17.5-63.5t47.5-46.5 65-17zM792 120q-56-51-128.5-79.5t-153-28.5-153 28-128.5 80q-102-52-160.5-140.5t-58.5-205.5h1004q0 118-59 206.5t-163 139.5z" />
<glyph unicode="&#xe604;" glyph-name="uniE604" d="M175 171q9 0 20 2-6 18-10.5 35.5t-7 36.5-2.5 38q0 15 1.5 29t4 28 6 27 8.5 27h-1q35 100 122 163t196 63 196-63 122-163h-1q10-28 15-55.5t5-55.5q0-53-20-110 5-1 10-1.5t10-0.5q47 0 79.5 33t32.5 79q0 35-19.5 63.5t-50.5 40.5q-23 83-77.5 149t-133.5 103-168 37q-134 0-239-81t-140-208q-15-6-28-16.5t-22.5-23.5-14.5-29.5-5-34.5q0-30 15-56t40.5-41 56.5-15zM793 115q0 2 2 23v145h-2q0 117-82.5 199t-198.5 82q-57 0-109-22t-89.5-60-60-90-22.5-109v-145q2-21 2-23 0-85-47-155t-122-103q53-23 111-23 99 0 178 66 65-66 159-66 95 0 160 66 79-66 179-66 29 0 57 6t54 17q-76 33-122.5 103t-46.5 155zM691 57q-29-30-69-44-3 19-18.5 32.5t-35.5 13.5q-23 0-39.5-16.5t-16.5-40 16.5-40 39.5-16.5q31 0 65 11-55-67-121-67-119 1-189 192-28 76-38 147 9 3 23 9.5t51 25.5 66.5 38 56.5 45.5 34 49.5l-16-76q-22-81-48-91 6 2 17 6t38.5 16.5 50 25.5 42.5 31.5 24 35.5q1-5 2-13t8.5-29 18.5-36.5 33.5-27 51.5-9.5q-12-88-47-173zM400 227q-16 0-28.5-7.5t-20-20.5-7.5-28h112q0 8-2 15t-5.5 13.5-9 11.5-11.5 8.5-13.5 5.5-14.5 2zM624 227q-15 0-28-7.5t-20.5-20.5-7.5-28h113q0 11-4.5 21.5t-12 18-18 12-22.5 4.5z" />
<glyph unicode="&#xe605;" glyph-name="uniE605" d="M970-118q-1-3-3-6.5t-7.5-4-11.5 10.5q-2 5-5.5 14.5t-16 37.5-27.5 54.5-40 61-52 62-65 53-78.5 39-92.5 13.5-107-17v-132q-1-3-1.5-8t-5-15.5-12-16-22-3.5-33.5 16l-337 291-7 5q-5 3-13.5 12.5t-10.5 19.5 6 25.5 29 30.5l341 293q1 1 3 2t7.5 3.5 11 4 12 1.5 12.5-3 10.5-11 7.5-20v-143h1q110-6 225-55 240-103 289-334 26-124-7-281z" />
<glyph unicode="&#xe606;" glyph-name="uniE606" horiz-adv-x="1000" d="M468 741q-89 0-170-34.5t-139.5-93-93.5-140-35-170.5 35-170 93.5-139.5 139.5-93 170-34.5 170 34.5 139.5 93 93 139.5 34.5 170-34.5 170.5-93 140-139.5 93-170 34.5zM620 207q12-11 0-22l-34-35q-11-11-22 0l-97 97-97-97q-11-11-22 0l-34 35q-12 11 0 22l96 97-96 96q-12 12 0 23l34 34q11 12 22 0l97-96 97 96q11 11 22 0l34-34q12-11 0-23l-96-96z" />
<glyph unicode="&#xe607;" glyph-name="uniE607" d="M515-172q-90 0-171.5 35t-141 94-94.5 141-35 171.5 35 171 94.5 141 141 94.5 171 35 171.5-35 141-94.5 94-141 35-171.5q0-45-9-88.5t-26-82.5-41-75-53.5-65.5-65.5-54-75-41-82.5-25.5-88.5-9zM514.5 630q-73.5 0-140-28.5t-115-77-77-115-28.5-140.5q0-98 48-181t131.5-131.5 181-48.5 181 48.5 132 131.5 48.5 181q0 74-29 140.5t-77 115-115 77-140.5 28.5z" />
<glyph unicode="&#xe608;" glyph-name="uniE608" d="M512.5 624q36.5 0 70-6.5t65.5-20.5 59.5-32.5 51.5-42.5q15-16 29-33.5t25.5-37 20.5-40.5q27-63 27-135t-27-135q-14-32-33-60t-42.5-52-51-42.5-59.5-32.5q-63-27-135.5-27t-135.5 27q-64 28-111 75.5t-75 111.5q-27 63-27 135 0 37 6.5 70t20.5 64q28 65 75 112.5t111 74.5q32 14 65.5 20.5t70 6.5zM513 724q-93 0-175-35-41-18-76.5-42t-65.5-54q-61-61-96-143-12-27-20-55.5t-12-58-4-60.5q0-93 36-174 35-82 95.5-143t142.5-96 175-35 174 35q27 11 52 26t47.5 32 42.5 37.5 37.5 43 32 47.5 26.5 53q35 81 35 174t-35 174q-35 82-96 142.5t-142 96-174 35.5zM647 193q0-11-1.5-21t-5.5-19q-7-19-20.5-33.5t-34-25-47.5-14.5v-83h-47v81q-8 0-16 1t-15 2q-15 3-29 7-7 2-13.5 4.5t-12.5 4.5q-12 6-21 12v65q10-7 23-14.5t27-12.5q7-3 14.5-5.5t15-4.5 14.5-3.5 13-1.5v132q-13 4-25 9t-22 10q-21 10-35.5 23t-22.5 30q-4 8-6 18t-2 21q0 6 0.5 11t1.5 10 2.5 9.5 3.5 9 5 9 6 8.5l6 6q3 4 7 8 8 6 17 11.5t19 9.5q21 9 45 12v75h47v-73q22-2 44-7 10-3 20.5-6t21.5-7v-60q-9 4-19 8t-21 7.5-23 6-23 3.5v-120q8-3 15.5-6t14.5-6.5 13-7.5q20-10 35-24 7-7 13-14.5t10-16.5q8-17 8-38zM442 377q0-10 3-19t10-15q14-13 36-21v104q-22-5-36-19-3-3-5.5-6.5t-4.5-7.5-2.5-8-0.5-8zM582 190q0 11-3 20t-8 15q-6 7-14 12-4 3-8.5 5.5t-10.5 4.5v-111q11 3 19 8t14 12 8.5 15.5 2.5 18.5z" />
<glyph unicode="&#xe609;" glyph-name="uniE609" d="M324 264q0-78 55-133.5t133-55.5 133.5 55.5 55.5 133.5-55.5 133-133.5 55-133-55-55-133z" />
<glyph unicode="&#xe60a;" glyph-name="uniE60A" d="M462 677h-135q-14 0-21.5 6.5t-10.5 16.5-3 22.5 2 23.5q1 11 4 24t8.5 22 14.5 12 22-5q15-9 34-19.5t37-21 33.5-19 23.5-13.5q10-7 15-15.5t4-16-8-12.5-20-5zM540 678h134q14 0 21.5 6.5t10.5 16.5 3 22.5-1 23.5q-2 11-4.5 23.5t-8 21.5-14.5 12-22-4q-15-9-34-19.5t-37.5-21-34-19-22.5-13.5q-11-7-16-15.5t-4-16 8-12.5 21-5zM448 612h-290q-32 0-41.5-10.5t-9.5-33.5v-88q0-25 10.5-37t41.5-12h289v181zM557 612h286q32 0 43.5-12.5t11.5-35.5v-86q0-24-10.5-35.5t-41.5-11.5h-289v181zM448 378h-307v-378q0-51 29-79t90-28h188v485zM557 378h306v-375q-1-51-29-80.5t-89-29.5h-188v485z" />
<glyph unicode="&#xe60b;" glyph-name="uniE60B" d="M511 723q-76 0-139.5-37.5t-100.5-101.5-37-140q0-32 15-83t39.5-107.5 54-117 59-115 54-98 39.5-69.5 16-26q5 10 15 27t39 68 55 99.5 58 113.5 55 118.5 39 105.5 16 84q0 56-22 108t-59 89.5-88.5 59.5-107.5 22zM511 276q-69 0-118 49t-49 118.5 49 118.5 118 49q45 0 83-22.5t60.5-61 22.5-83.5q0-28-8.5-53.5t-24-46-36-36-45.5-24-52-8.5z" />
<glyph unicode="&#xe60c;" glyph-name="uniE60C" d="M799 479q-12 3-20-6h-1l-34-27q-70 97-187 118-27 5-54 5-124 0-211-87t-87-210 87-210 211-87q90 0 164 50t109 130q10 10 10 25t-10 25.5-25 10.5q-11 0-19.5-6t-12.5-15l-3 1q-24-67-82-108.5t-131-41.5q-94 0-160.5 66t-66.5 160 66.5 160 160.5 66q38 0 73.5-12t64-34 48.5-51l4 2-48-40v-1q-3-2-5-5t-3-7q-2-5 0-10.5t6-9.5 10-5l16-3 112-17 1 1q3-1 3-2 4-1 8 0.5t7 4 4 6.5v8l11 134q1 18-16 22z" />
<glyph unicode="&#xe60d;" glyph-name="uniE60D" horiz-adv-x="1000" d="M915 265l-5 7q-3 5-12.5 16.5t-19 20.5-23.5 16-27 7-27-7-25.5-17.5-21-20.5-14.5-17l-5-7q-2 2-5 7t-13.5 17-20.5 21.5-24.5 16.5-28.5 7q-24-1-44-18.5t-33-44.5v-265q-2-27-4.5-40.5t-7.5-27.5q-8-25-30-45-22-19-45-27-19-6-51-6-7 0-13.5 0.5t-13 1.5-12.5 2.5-12 3.5q-11 5-20.5 11t-17.5 14q-15 16-23.5 38.5t-8.5 58.5v25h73q0-63 8-75 13-17 40-18 5-1 9.5 0t8 2 6.5 2.5 4 2.5h2q11 11 14 20l4 21q2 22 2 34v272q-2 2-10.5 12.5t-14.5 17-15.5 14.5-19.5 12-21 3q-24 0-48.5-17.5t-36.5-33.5l-13-17q-2 3-6 7.5t-15.5 16-22 20.5-24 16.5-23.5 7.5q-6 0-13-2t-13.5-6-13-9.5-12.5-11.5l-12-10q-6-6-10.5-11.5t-7.5-9-5-6.5l-2-2v20q0 13 5.5 51t16.5 73 36.5 79 60.5 77.5 94.5 60 133.5 33.5l52 73 50-73q60-3 110.5-19t84.5-39 61-54 43-61 26.5-64.5 14.5-59.5 6-50.5 1.5-34-0.5-12.5z" />
<glyph unicode="&#xe60e;" glyph-name="uniE60E" horiz-adv-x="1000" d="M500 631l90-277h292l-236-172 90-278-236 172-236-172 90 278-236 172h292z" />
<glyph unicode="&#xe60f;" glyph-name="uniE60F" horiz-adv-x="1000" d="M745-140q-42 0-79.5 16t-65.5 44-44 65.5-16 79.5 16 79.5 44 65 65.5 43.5 79.5 16 79.5-16 65-43.5 43.5-65 16-79.5-16-79.5-43.5-65.5-65-44-79.5-16zM846 98h-74v69q0 14-9 24t-23 10-22-10-8-24v-69h-65q-14 0-24-10t-10-24 10-21 24-7h65v-71q0-14 8-24t22-10 23 10 9 24v71h74v-2q14 0 24 8t10 22-10 24-24 10zM599 347q-4-16-8-29-4-11-10-22.5t-13-17.5q-9-7-12.5-15t-6-16.5-5.5-17.5-10-18q-23-30-34.5-58t-16-54-2.5-51.5 8-49.5q4-18 12-37.5t23.5-40 39.5-40 60-37.5q-24-5-56-9-27-3-66.5-5.5t-90.5-2.5q-26 0-60.5 2t-71 5-72 7-65 8.5-50 9.5-25.5 9q-9 8-14 44.5t3 95.5q5 33 26.5 50.5t50.5 27.5 60.5 18.5 55.5 23.5q19 12 29 22.5t14 21.5 4 23-1 26q-2 21-14.5 33t-26.5 24q-8 6-14 18t-10 23q-5 13-8 29-7 2-13 6-5 4-11 12t-11 24q-5 15-3.5 28t5.5 22q4 11 11 19 0 34 4 68 4 29 12.5 62t27.5 59q18 25 38.5 41t42.5 25 44 12.5 42 3.5q26 0 50-6t44.5-16 36.5-22.5 26-25.5q23-29 33.5-64t15.5-66q5-36 4-72 6-5 10-12 4-6 6-16t0-25q-2-19-8-30t-13-17q-8-7-17-10z" />
<glyph unicode="&#xe610;" glyph-name="uniE610" horiz-adv-x="1000" d="M905-34q28-32 30.5-56t-18.5-47q-24-27-53-25.5t-56 23.5l-161 155q-45-30-97.5-46.5t-110.5-16.5q-79 0-148 30t-120.5 81.5-81 120.5-29.5 148q0 78 29.5 147t81 120.5 120.5 81.5 148 30 148-30 120.5-81.5 81.5-120.5 30-147q0-60-17.5-114t-48.5-99q13-14 36.5-37.5t47-47.5 43.5-43zM439 87q52 0 98 19.5t80 53.5 53.5 80 19.5 98-19.5 98-53.5 80-80 53.5-98 19.5-97.5-19.5-79.5-53.5-54-80-20-98 20-98 54-80 79.5-53.5 97.5-19.5zM500 401h125v-125h-125v-125h-126v125h-124v125h124v125h126v-125z" />
<glyph unicode="&#xe611;" glyph-name="uniE611" horiz-adv-x="1000" d="M892 86.5q-16 36.5-43.5 63.5t-64 43-77.5 16q-42 0-78.5-16t-63.5-43-43-63.5-16-77.5q0-42 16-78.5t43-64 64-42.5q18-8 37.5-12t40.5-4q41 0 77.5 15.5t64 43 43.5 64 16 78.5q0 41-16 77.5zM682-120l-107 113 51 50 65-72 120 115 39-40zM619 721h-65v51h-155v-51h-64v-113h284v113zM476.5 657q-15.5 0-26.5 11t-11 26.5 11 26.5 26.5 11 26.5-11 11-26.5-11-26.5-26.5-11zM480 138q23 40 57 69t78 45.5 91 16.5q62 0 117-27v393h-146v-86h-399v86h-150v-740h344q-12 26-19 55t-7 59q0 10 1 20.5t2 20.5h-214v88h245zM235 364h486v-89h-486v89z" />
<glyph unicode="&#xe612;" glyph-name="uniE612" d="M695 447q-5 5-11 7t-12 2h-4q-2 0-4-0.5t-4-1.5l-4-2q-2-1-3.5-2t-2.5-3l-84-83-83 83q-10 9-23 9h-4q-3 0-5.5-1t-4.5-2-4-2.5-4-3.5-4-5-3-5.5-1.5-5.5-0.5-6 0.5-6.5 1.5-6 3-5.5 4-5l52-52h-51q-6 0-6-6v-51q0-2 2-4t4-2h95v-42h-95q-6 0-6-7v-51q0-2 2-4t4-2h95v-95q0-13 9.5-22.5t22.5-9.5q9 0 16 4t11.5 11.5 4.5 16.5v95h95q6 0 6 6v51q0 2-0.5 3.5t-2 2.5-3.5 1h-95v42h95q6 0 6 6v51q0 2-0.5 3.5t-2 2-3.5 0.5h-50l52 52q9 9 9 22.5t-9 22.5zM954 454q-32 75-90 134-19 19-40.5 35.5t-45 30-48.5 24.5q-78 33-163.5 33t-164.5-33q-75-32-133.5-90.5t-90.5-133.5q-4-10-7.5-20.5t-7-21.5-6.5-22l-21 48q-8 18-29 18h-3q-1 0-3-0.5t-3.5-1-2.5-0.5q-12-6-17-18t0-24l66-146q0-2 1-3 0-1 1-2 0-1 1-2h1v-1l1-1v-1h1l3-3h1q0-1 0.5-1t1.5-1v0l1-1h1l4-2h2q1-1 2-1v0h4v-1h5l1 1h5v1h2q1 0 1 0.5v0.5h2v1h1l2 1q3 1 5 3l120 106q10 9 11 22t-8 23q-4 5-10.5 8t-13.5 3q-12 0-21-8l-57-50q16 82 66.5 148t125.5 104 159 38q49 0 95-13t85.5-36 72.5-56 56-72.5 36-85.5 13-95q0-73-28.5-139t-76.5-114-114-76-139-28q-132 0-232 86-9 7-21 7-14 0-24-11-9-10-7.5-23t10.5-22q119-101 274-101 86 0 164 33 38 16 71.5 38.5t62.5 51.5q58 59 90 134 33 78 33 164t-33 164z" />
<glyph unicode="&#xe613;" glyph-name="uniE613" horiz-adv-x="1000" d="M870-161h-674q-37 0-68 18t-48.5 48.5-17.5 67.5v606q0 56 39 95t95 39h674q55 0 92.5-39t37.5-95v-606q0-56-37.5-95t-92.5-39zM311 588q-3-11-15-53t-16.5-57-16.5-50-21.5-55-24-47.5-30.5-49.5q1-5 1.5-11t0.5-11v-12q0-7-0.5-12t-1-9-0.5-6v-2l37 32q18 18 25 31v-313h62v437q23 46 72 186zM666 577l-42-38q9-7 34.5-28t40.5-34 26-26l4 6q2 3 3.5 6.5t3 8 2.5 8.5 2 8.5 2 8.5 2 7l2 8q1 3 2 5.5t2 3.5q-6 6-17 14t-22.5 15-21.5 13.5-16 10.5zM812 116q-7 2-19.5 9t-24 13.5-18.5 6.5v-119h-70q-29 0-43 19t-13 43v250h188v62h-250q2 21 2 50.5t-1 71-1 66.5h-63q0-3 0.5-48t0.5-85-1-55h-125v-62h125q0-8-1.5-22t-9.5-54.5-20.5-77.5-38-82-59.5-76q4-4 4-63 3 1 8.5 3.5t21 13 29.5 24 32 36.5 31 51q45 89 66 247v-250q0-50 19-87.5t59-37.5h110q40 0 51.5 14.5t10.5 48.5v90z" />
<glyph unicode="&#xe614;" glyph-name="uniE614" d="M786 155h-230q-4 0-6.5-1.5t-4.5-4.5-2-6q0-5 4-9t9-4h230q5 0 9 4t4 9q0 2-1 4t-2 3.5-2.5 2.5-3.5 1.5-4 0.5zM878 589h-731q-32 0-55-23t-23-55v-471q0-32 23-55t55-23h731q32 0 55 23t23 55v471q0 32-23 55t-55 23zM147 527h731q6 0 11-4.5t5-11.5v-73h-763v73q0 4 2 8t6 6 8 2zM878 24h-731q-6 0-11 5t-5 11v263h763v-263q0-4-2.5-7.5t-6-6-7.5-2.5z" />
<glyph unicode="&#xe615;" glyph-name="uniE615" d="M523 688q-57 0-111-15t-99.5-42-84-65.5-65.5-84-42-99.5-15-111q0-113 56-209t152-151.5 209-55.5 209 55.5 152 151.5 56 209q0 85-33.5 162t-89 133-133 89-161.5 33zM523-101q-101 0-187 50t-135.5 136-49.5 186q0 76 29.5 145t79 118.5 118.5 79 144.5 29.5 144.5-29.5 119-79 79.5-118.5 29.5-145q0-100-50-186t-135.5-136-186.5-50zM624 489l-67-122q-26-49-32-65h-1q-18 39-99 187h-62l116-198h-95v-44h111v-61h-111v-44h111v-89h55v89h108v44h-108v61h108v44h-92l116 198h-58z" />
<glyph unicode="&#xe616;" glyph-name="uniE616" horiz-adv-x="1000" d="M572 279q0 7 4.5 14.5t12 12 14.5 4.5q12 0 21-4.5t13.5-11.5 4.5-15-4.5-15-13.5-11.5-21-4.5q-3 0-6 0.5t-6 2.5l-6 4q-3 2-5 5l-4 6q-2 3-3 6t-1 7zM743 279q0 11 10 21t21 10q3 0 6.5-0.5t6.5-1.5 5.5-2 5-2.5 4.5-3.5l4-4q2-2 3-4l2-4q1-2 1.5-4.5t0.5-4.5q0-13-11-22t-28-9q-7 0-14.5 4.5t-12 11.5-4.5 15zM425 209q0-94 77-159.5t187-65.5q31 0 93 15l85-46-23 77q108 82 108 179 0 60-36.5 112.5t-97 82.5-129.5 30q-72 0-133-30t-96-82-35-113zM386 667q-128 0-219-77t-91-187q0-123 124-210l-31-93 109 55q78-16 108-16 13 0 29 1-4 16-6.5 32.5t-2.5 32.5q0 50 20.5 95.5t55.5 78.5 84 52.5 103 19.5q8 0 15-0.5t15-1.5q-20 94-109 156t-204 62zM285 457q-18 0-32 11t-14 28 14 28 32 11 28.5-10.5 10.5-28-10.5-28.5-28.5-11zM503 457q-9 0-17.5 3t-15 8-10.5 12.5-4 15.5q0 11 7 20t17.5 14 22.5 5q17 0 27.5-10.5t10.5-28.5q0-11-4.5-20t-13.5-14-20-5z" />
<glyph unicode="&#xe617;" glyph-name="uniE617" horiz-adv-x="1000" d="M827 578q47 0 74.5-23.5t27.5-71.5v-420q0-7-1-13.5t-2.5-12.5-4.5-13q-7-18-20-31-7-7-15-12.5t-17-9.5q-4-2-8.5-3.5t-9-2.5-9.5-1.5-10-0.5h-660q-20 0-37 7.5t-30 20-20.5 29.5-7.5 35v430q0 40 25 66.5t70 26.5h655zM289 438q-7 0-13.5-1.5t-13.5-4.5q-13-5-23-14-5-5-8.5-10.5t-6.5-12.5q-6-13-6-28 0-4 0.5-8t1-7.5 1.5-6.5 3-6q6-13 15.5-23t22.5-15.5 27-5.5h8q4 0 7 1l8 2 6 2q7 3 12.5 7t10.5 9 8.5 10.5 6.5 12 4.5 13.5 1.5 15q0 5-0.5 9.5t-1.5 9.5-3 9l-4 8q-2 4-5 7.5t-6 7.5q-21 20-53 20zM408 176q0 14-5.5 27.5t-15 23-23 15-27.5 5.5h-95q-29 0-49.5-21t-20.5-50v-71h236v71zM759 101q15 0 23 7 1 2 2.5 4.5t2.5 4.5 1.5 4.5 0.5 5.5q0 10-8 18-5 4-10.5 6t-13.5 2h-225q-16 0-23.5-8t-7.5-18.5 7.5-18 22.5-7.5h228zM760 199q8 0 13.5 1.5t8.5 5.5q7 8 7 18 0 3-0.5 5.5t-1.5 5-2 4.5-3 4q-6 8-21 8h-232q-15 0-21.5-7.5t-6.5-19.5q0-10 6-17.5t22-7.5h231zM761 295q11 0 19.5 7.5t8.5 17.5q0 4-1 7t-3 5.5-4 4.5q-3 2-5 3t-4.5 2-5 1.5-5.5 0.5h-154q-5 0-10-1.5t-9-5-6-7.5-2-10q0-10 8-17.5t19-7.5h154z" />
<glyph unicode="&#xe618;" glyph-name="uniE618" d="M779 669h-533l-183-256 449-530 38 44 411 486zM896 416l-218-19 82 210zM532 617h215l-79-203zM661 397v-1l-149-13-150 13v1l149 220h3zM355 414l-78 203h215zM477 4l-335 395 209-18zM512-38l-8 10-137 408 145-13 144 13-135-408zM265 607l80-210-216 19zM547 3l125 378 211 18z" />
<glyph unicode="&#xe619;" glyph-name="uniE619" horiz-adv-x="1000" d="M896 459q-33 78-94 138-15 15-31 28.5t-33.5 25.5-36 22-38.5 18q-81 34-170 34t-170-34q-78-33-139-94-30-30-53.5-64.5t-39.5-73.5q-35-82-35-171t35-170q33-78 93.5-138.5t138.5-93.5q81-35 170-35t170 35q79 33 139 93 20 20 37.5 42.5t31.5 46.5 25 50q34 81 34 170t-34 171zM493-111q-108 0-200 53.5t-145.5 145.5-53.5 200q0 65 20 126t57 110 86 86 110 57.5 126 20.5q109 0 201-53.5t145.5-145.5 53.5-201q0-65-20.5-125.5t-57.5-110-86-86.5-110-57-126-20zM524 125h-69q-5 0-5-5v-69q0-5 5-5h69q4 1 6 5v69q0 2-2 3.5t-4 1.5zM609 519q-46 39-119 39-69 0-114-40t-51-108q0-2 1.5-4t4.5-2h65q2 0 3.5 1.5t1.5 3.5q14 88 90 88 39 0 63-23 12-12 18-27t6-33.5-9-34.5q-4-9-16-21t-31-28q-4-4-8-7.5t-8-7.5l-8-7-6-8-6-6-6-8-4-6q-3-4-5-7.5t-3-6.5q-15-30-15-94 0-5 5-5h59q4 1 6 5 0 46 8.5 65.5t49.5 52.5q21 18 35.5 34t22.5 31q5 9 8.5 19.5t5 21.5 1.5 22q0 61-45 101z" />
<glyph unicode="&#xe61a;" glyph-name="uniE61A" d="M784-147h-543q-44 0-75 31t-31 75v572q0 44 31 75t75 31h51q5 0 10-2t8.5-5.5 5.5-8 2-10.5q0-10-7.5-17.5t-18.5-7.5h-51q-15 0-27.5-7.5t-20-20-7.5-27.5v-572q0-15 7.5-27.5t20-19.5 27.5-7h543q23 0 39 16t16 38v572q0 23-16 39t-39 16h-50q-11 0-18.5 7.5t-7.5 18 7.5 18 18.5 7.5h50q44 0 75-31t31-75v-572q0-11-2.5-21.5t-6.5-19.5-9.5-18-12.5-16-16-12.5-18-9.5-19.5-6.5-21.5-2.5zM707 379h-387q-10 0-17.5 7.5t-7.5 18 7.5 18 17.5 7.5h387q11 0 18.5-7.5t7.5-18.5q0-5-2-9.5t-5.5-8-8-5.5-10.5-2zM707 220h-387q-10 0-17.5 7.5t-7.5 18 7.5 18 17.5 7.5h387q11 0 18.5-7.5t7.5-18.5q0-5-2-10t-5.5-8-8-5-10.5-2zM707 36h-387q-10 0-17.5 7.5t-7.5 18 7.5 18 17.5 7.5h387q11 0 18.5-7.5t7.5-18.5q0-5-2-9.5t-5.5-8-8-5.5-10.5-2zM629 620q0 5-1.5 10t-3.5 9.5-5.5 8-8 6-9.5 4-10 1.5h-159q-7 0-14-3t-12-8.5-8-12.5-3-15q0-7 1.5-13t5-10.5 8.5-8.5 10.5-6 11.5-2h159q16 0 27 11.5t11 28.5z" />
<glyph unicode="&#xe61b;" glyph-name="uniE61B" d="M773 380h-85v-107h85q69 0 69 56-3 49-69 51zM512 724q-73 0-141.5-22.5t-123.5-64-96.5-96.5-64-123.5-22.5-141.5 22.5-141.5 64-123.5 96.5-96.5 123.5-64 141.5-22.5q91 0 174 35.5t143 95.5 95.5 143 35.5 174q0 61-16 119t-45 107-70.5 90.5-90.5 70.5-107 45-119 16zM319 97h-50l-137 331h57l100-250q4-16 4-27h2q1 8 2.5 15.5t3.5 13.5l96 248h59zM556 97h-55v331h55v-331zM778 225h-90v-128h-56v332h149q109-4 117-100-2-103-120-104z" />
<glyph unicode="&#xe61c;" glyph-name="uniE61C" d="M844 551l-58 58-275-276-274 275-58-58 275-275-275-275 58-59 275 276 274-275 58 59-275 274z" />
<glyph unicode="&#xe61d;" glyph-name="uniE61D" horiz-adv-x="1000" d="M866 275l-479 516h-221l479-516-479-479h221z" />
<glyph unicode="&#xe61e;" glyph-name="uniE61E" horiz-adv-x="1000" d="M645-204h221l-479 479 479 516h-221l-479-516z" />
<glyph unicode="&#xe61f;" glyph-name="uniE61F" horiz-adv-x="1000" d="M720 658q11 10 11 25t-10.5 25.5-25 10.5-25.5-11l-403-407q-11-11-11-25.5t11-25.5l403-408q7-6 16-8.5t18.5 0 16 9 9 16 0 18.5-9.5 16l-368 382 20 21q21 22 53.5 55.5t71.5 74.5 78.5 81.5 72 74.5 52.5 55z" />
<glyph unicode="&#xe620;" glyph-name="uniE620" horiz-adv-x="1000" d="M1013 620l-62 61v49h-874v-874h874v701zM890-83h-750v751h705l-414-415-156 170-117-112 264-272 6-12 462 468v-578z" />
<glyph unicode="&#xe621;" glyph-name="uniE621" horiz-adv-x="1000" d="M515 729q-89 0-170-34.5t-139.5-93-93-139.5-34.5-170 34.5-169.5 93-139 139.5-93.5 170-35 170 35 139.5 93.5 93 139 34.5 169.5q0 168-111 292-109 121-268 142-29 3-58 3zM515-80q-76 0-145 29.5t-118.5 79.5-79 119-29.5 144q0 102 49.5 187.5t135.5 135.5 187 50 187-50 136-135.5 50-187-50-187.5-136-135.5-187-49.5zM612 405q78-78 125-139l-36-25-32 40q-9 0-18-0.5t-18-0.5-17.5-0.5-17.5-0.5v-150q0-23 6-29 7-9 27-9h48q33 0 37 25 4 21 6 66 18-7 44-15-3-35-8-64-8-47-71-47h-63q-38 0-52 16-15 14-15 50v155q-47-1-90-3-3-82-32-129-40-64-145-100-10 16-25 37 100 32 135 88 25 39 27 102-33-1-57-3-14-1-40-8l-21 44q27 6 47 24 50 47 94 102h-176v38h238q-17 31-32 52l35 21q10-13 19.5-27.5t19.5-31.5l-27-14h232v-38h-254q-49-57-115-121 157 3 250 5-28 35-58 68z" />
<glyph unicode="&#xe622;" glyph-name="uniE622" horiz-adv-x="1000" d="M517 729q-88 0-169-35t-139.5-93-93-139-34.5-169.5 34.5-169.5 93-139.5 139.5-93 169.5-34.5 169.5 34.5 139.5 93 93 139.5 34.5 169q0 71-22 138t-62.5 120.5-94 94-120.5 62.5-138 22zM399 69q-14 0-24 10t-10 23q0 7 3 13.5t7.5 11 10.5 7 13 2.5q3 0 5.5-0.5t5.5-1.5l4-2q3-1 5-2.5t3-3.5l4-4 2-4q2-2 2.5-4.5t1-5.5 0.5-6q0-9-4.5-16.5t-12-12-16.5-4.5zM604 60q-13 0-23.5 6t-16.5 16.5-6 23 6 23 16.5 17 23.5 6.5q19 0 32.5-13.5t13.5-33-13.5-32.5-32.5-13zM808 467q0-6-3-11.5t-9-8.5-13-3h-79l-90-256q-3-7-9.5-11.5t-14.5-4.5h-244q-10 0-17.5 7t-7.5 17v7q0 10 7.5 17t17.5 7h224l11 34h-276q-6 0-11.5 3t-8.5 8.5-3 11.5v7q0 10 6.5 17t16.5 7h296l11 33h-332q-10 0-17 7t-7 17v7q0 10 7 16.5t17 6.5h352l28 81q5 15 21 16h102q10 0 17.5-7t7.5-16v-9z" />
<glyph unicode="&#xe623;" glyph-name="uniE623" d="M960 787q-29-15-59.5-35.5t-59.5-42.5-58-48h-655v-321l-128-64q54-20 128-73v-311h767v550q39 21 64 27-22 52-23.5 102t10.5 118.5 14 97.5zM191 599h525q-40-38-80.5-82t-73.5-83.5-64-78-54-70-40-55.5-26-37l-9-13-113 224-65-33v228zM191 153q108-90 192-197h-192v197zM832-44h-448q47 88 185.5 224.5t262.5 221.5v-446z" />
<glyph unicode="&#xe624;" glyph-name="uniE624" d="M843 441h61v-617h-844v844h506v-61h-446v-723h723v557zM292 297l-42-42 207-207 457 693-51 33-416-631z" />
<glyph unicode="&#xe625;" glyph-name="uniE625" d="M511 723q-90 0-173-35.5t-142.5-95.5-95-142.5-35.5-173.5q0-72 22.5-140t64-123 96-96.5 123-64 140.5-22.5q91 0 173.5 35.5t142.5 95 95.5 142.5 35.5 173q0 61-16 119t-45 107-70.5 90-90 70-106.5 45-119 16zM511-114q-106 0-196 52t-142 142-52 196 52 196 142 142.5 196 52.5 196-52.5 142.5-142.5 52.5-196-52.5-196-142.5-142-196-52zM670 436q-8 8-19.5 8t-19.5-8l-120-120-120 120q-8 8-19.5 8t-19.5-8q-5-6-7-13t0-14 7-13l120-120-120-119q-8-9-8-20.5t8-19.5q4-4 9-6t11-2q11 0 19 8l120 120 120-120q8-8 19.5-8t19.5 8q4 4 6.5 9.5t2.5 10.5-2.5 10.5-6.5 9.5l-119 119 119 120q4 4 6.5 9.5t2.5 10.5-2.5 10.5-6.5 9.5z" />
<glyph unicode="&#xe626;" glyph-name="uniE626" d="M512 724q-91 0-174-35.5t-143-95.5-95.5-143-35.5-174 35.5-174 95.5-143 143-95 174-35q61 0 119 16t107 44.5 90.5 70 70 90.5 44.5 107 16 119q0 91-35 174t-95 143-143 95.5-174 35.5zM512-108q-78 0-149.5 30.5t-122.5 82-81.5 122.5-30.5 149q0 105 51.5 193t139.5 139.5 192.5 51.5 193-51.5 139.5-139.5 51-193q0-62-19-120.5t-54.5-106-83-83-106-55-120.5-19.5zM256 276q0 70 34 129t93 93 129 34q106 0 181-75t75-181-75-181-181-75-181 75-75 181z" />
<glyph unicode="&#xe627;" glyph-name="uniE627" d="M314 311l121-235q4 10 12 27.5t34.5 70.5 56 103.5 75.5 117.5 93.5 122.5 110.5 109 126 86.5q-2-24-8-80.5t-7.5-86.5 5.5-77 25-90q-33-7-78.5-38.5t-93.5-77-98.5-102-95.5-113.5-82-111-60-96q-47 59-99 111.5t-102 93.5-97.5 70-87.5 44z" />
<glyph unicode="&#xe628;" glyph-name="uniE628" horiz-adv-x="1000" d="M719 776h-438q-38 0-65.5-27.5t-27.5-66.5v-812q0-39 27.5-66.5t65.5-27.5h438q38 0 65.5 27.5t27.5 66.5v812q0 39-27.5 66.5t-65.5 27.5zM375 729h250v-31h-250v31zM500-162q-26 0-44 18.5t-18 44.5q0 17 8 31.5t22.5 23 31.5 8.5 31.5-8.5 22.5-23 8-31.5q0-13-4.5-24.5t-13-20-20-13.5-24.5-5zM750 26h-500v625h500v-625z" />
<glyph unicode="&#xe629;" glyph-name="uniE629" d="M951 356q-15 23-39 36t-52 14h-5l-208 1q3 8 5.5 16.5t5 17.5 4 17.5 3 17.5 2.5 18 1.5 18.5 0.5 18.5q0 42-10 83-4 17-14 32t-24 25.5-31.5 17-36.5 6.5q-30 0-55-14t-39.5-38.5-14.5-52.5v-4q0-1 0.5-3t0.5-3q-3-83-62.5-143t-145.5-66v-1h-128q-16 0-27-10.5t-11-25.5v-432q0-10 5-18.5t13.5-13 18.5-4.5h674q32 0 59 16 26 16 40 43l3 5 2 6 80 343q2 6 2 12 1 17-3 33.5t-14 31.5zM146 298h75l-1-360h-74v360zM892 289l-78-331q-4-10-13-15-7-4-14-5h-492v369q74 18 130 68.5t80 120.5q6 17 9 33 3 13 4 27.5t1 22.5v7h1v3q0 14 10 23.5t24.5 9.5 24.5-9.5 10-23.5v-2h1q5-27 5-56 0-17-1-31t-2-20l-2-6q-9-46-32-87-3-8-3-16 0-15 10.5-25.5t26.5-10.5l264-1q21 1 32-16 9-14 4-29z" />
<glyph unicode="&#xe62a;" glyph-name="uniE62A" horiz-adv-x="1000" d="M405-81h219v110h-219v-110zM897 685h-765q-23 0-39-16t-16-39v-492q0-22 16-38.5t39-16.5h765q23 0 39 16.5t16 38.5v492q0 11-4.5 21.5t-12 17.5-17.5 11.5-21 4.5zM569 138h-109v55h109v-55zM897 248h-765v382h765v-382z" />
<glyph unicode="&#xe62b;" glyph-name="uniE62B" d="M994 38h-961l481 480z" />
<glyph unicode="&#xe62c;" glyph-name="uniE62C" d="M273 758v-960l481 480z" />
<glyph unicode="&#xe62d;" glyph-name="uniE62D" d="M754 758v-960l-481 480z" />
<glyph unicode="&#xe62e;" glyph-name="uniE62E" d="M994 518h-961l481-480z" />
<glyph unicode="&#xe62f;" glyph-name="uniE62F" d="M508 375q7 0 14.5-3t13.5-9l159-159q5-5 5-12t-5-12-12.5-5-12.5 5l-159 159q-3 3-7 0l-159-159q-3-4-7.5-5t-9 0-7.5 5q-5 5-5 12t5 12l159 159q11 12 28 12zM896 275q0-105-51.5-193t-140-139.5-192.5-51.5-192.5 51.5-140 139.5-51.5 192.5 51.5 193 140 140 192.5 51.5q78 0 149-30.5t122.5-82 82-122.5 30.5-149zM512 627q-96 0-177-47t-128-128.5-47-177 47-176.5 128-128 177-47q72 0 137 28t112 75 75 112 28 137q0 95-47 176.5t-128 128.5-177 47z" />
<glyph unicode="&#xe630;" glyph-name="uniE630" d="M508 175q-17 0-28 11l-159 159q-5 5-5 12.5t5 12.5 12 5 12-5l159-159q4-4 7 0l159 159q3 3 7.5 4t9 0 8-4.5 4.5-7.5 0-8.5-4-8.5l-159-159q-3-3-6.5-5t-7-3.5-7-2-7.5-0.5zM896 275q0-105-51.5-193t-140-139.5-192.5-51.5-192.5 51.5-140 139.5-51.5 192.5 51.5 193 140 140 192.5 51.5q78 0 149-30.5t122.5-82 82-122.5 30.5-149zM512 627q-96 0-177-47t-128-128.5-47-177 47-176.5 128-128 177-47q72 0 137 28t112 75 75 112 28 137q0 95-47 176.5t-128 128.5-177 47z" />
<glyph unicode="&#xe631;" glyph-name="uniE631" d="M759 608q7-5 14-10.5t13.5-11 13-11.5 12.5-12 12-12.5 12-12.5q16-20 30.5-41t26.5-44q24-46 37-96 12-51 12-103 0-45-8.5-87.5t-25.5-81.5q-34-79-92-137.5t-136.5-93-167.5-34.5-167 34q-39 18-73 41t-64 52q-58 59-92 138-8 19-14.5 39.5t-10.5 41.5-6.5 43-2.5 45q0 17 1.5 33.5t4 33.5 6.5 33q12 50 34 94 11 22 25 43t30.5 40.5 34.5 37 38 32.5q21 16 46 12 3-1 6-1.5t5.5-1.5 5.5-2.5 5.5-3 4.5-3 4.5-3.5 4.5-4.5 4-5.5q15-20 11-45t-24-41q-30-22-53-49.5t-39.5-59.5-24.5-67-8-72q0-32 6-62.5t18-58.5q24-57 66-99t98-66q28-13 58-19t62-6q63 0 119 25 57 24 98.5 66.5t66 99 24.5 120.5q0 75-34.5 142.5t-96.5 110.5q-11 7-17.5 17t-8.5 23q-1 8-0.5 16t3 15.5 7.5 14.5q15 21 40 25t46-10zM512 251q-25 0-43 18t-18 43v367q0 9 2 16.5t6 14.5 10 13q18 18 43 18 26 0 44-18 5-6 9-13t6-14.5 2-16.5v-367q0-25-17.5-43t-43.5-18z" />
<glyph unicode="&#xe632;" glyph-name="uniE632" horiz-adv-x="1000" d="M857-224h-714q-59 0-101 29.5t-42 70.5v800q0 41 42 70.5t101 29.5h714q59 0 101-29.5t42-70.5v-800q0-41-42-70.5t-101-29.5zM500-174q30 0 50.5 14.5t20.5 35.5-20.5 35.5-50.5 14.5-50.5-14.5-20.5-35.5 20.5-35.5 50.5-14.5zM601 710h-208v-34h208v34zM929 626h-858v-650h858v650z" />
<glyph unicode="&#xe633;" glyph-name="uniE633" d="M512.5 720q-90.5 0-173-35.5t-141.5-95-94.5-141.5-35.5-172.5 35.5-172.5 94.5-141.5 141.5-94.5 173-35 172.5 35 141.5 94.5 94.5 141.5 35 172.5-35 172.5-94.5 141.5-141.5 95-172.5 35.5zM512-67q-69 0-132.5 27t-109.5 73-73 109.5-27 133.5q0 93 45.5 172t124.5 124.5 172 45.5 172-45.5 125-124.5 46-172q0-56-17.5-108.5t-49-94.5-73.5-73.5-94.5-49-108.5-17.5zM570 64q0-10-6-17t-15-7h-73q-9 0-15.5 7t-6.5 17v40q0 4 1.5 8.5t4.5 7.5q7 7 16 7h73q9 0 15-7t6-16v-40zM564 194q-7-4-15-5l-73 1q-4 0-8 1t-7 3-4.5 5-1.5 6l-1 112v176q0 3 1.5 6t4.5 5q7 5 15 5h74q4 0 8-1.5t7-3.5q6-5 6-11v-288q0-6-6-11z" />
<glyph unicode="&#xe634;" glyph-name="uniE634" horiz-adv-x="1000" d="M646 590q21 25 32 60t11 57v22q-3 0-9-1t-22.5-5-32-10.5-34.5-19-32.5-28-23-36-13-38-5.5-32.5-2-24v-9h3q2 0 8 1.5t12 2.5 15.5 4 18 6 18.5 8 19.5 11 19 14 17.5 17zM750 266q0 52 26.5 96t70.5 68q-19 28-48 49t-58 31.5-55 10.5q-25 0-61-10.5t-65-21-38-10.5q-7 0-57.5 19t-90.5 20q-33 0-68-11.5t-70.5-43-51.5-78.5q-18-52-21.5-112.5t11.5-131.5 49-135q80-151 157-151 25 0 77.5 18.5t74.5 18.5q16 0 34.5-5.5t33.5-12.5 34-13 35-6q34 0 69 25.5t63 66.5q15 24 32 58.5t26.5 56.5 9.5 23v5q-53 21-86 68.5t-33 107.5z" />
<glyph unicode="&#xe635;" glyph-name="uniE635" d="M906-34q28-32 30.5-56t-18.5-47q-24-27-53-25.5t-56 23.5l-161 154q-45-29-97.5-45.5t-110.5-16.5q-79 0-148 30t-120.5 81.5-81 120.5-29.5 148q0 78 29.5 147t81 120.5 120.5 81.5 148 30 148-30 120.5-81.5 81.5-120.5 30-147q0-60-17.5-114t-48.5-100l36-37q24-23 47.5-47t42.5-43zM440 87q52 0 98 19.5t80 53.5 53.5 80 19.5 98-19.5 98-53.5 80-80 53.5-98 19.5-97.5-19.5-79.5-53.5-54-80-20-98 20-98 54-80 79.5-53.5 97.5-19.5zM250 401h376v-125h-376v125z" />
<glyph unicode="&#xe636;" glyph-name="uniE636" d="M839.5 431q-22.5 0-38.5-16t-16-39v-216q0-12 4.5-22t11.5-17.5 17-12 22-4.5q22 0 38 16.5t16 39.5v216q0 23-16 39t-38.5 16zM182 431q-7 0-14-2t-13-5.5-11-8.5-8.5-11-5.5-13.5-2-14.5v-216q0-12 4.5-22t11.5-17.5 17-12 21-4.5q15 0 27.5 7.5t20 20.5 7.5 28v216q0 23-16 39t-39 16zM270 430v-395q0-18 12.5-30.5t29.5-12.5h49v-120q0-23 16-39.5t38.5-16.5 38.5 16.5 16 39.5v120h84v-120q0-23 16-39.5t39-16.5q15 0 27.5 7.5t19.5 20.5 7 28v120h49q6 0 11.5 1.5t10 4.5 8.5 6.5 6.5 8.5 4 10.5 1.5 11.5v395h-484zM626 634l45 65q5 7-1.5 11.5t-11.5-2.5l-46-68q-49 19-101 19-27 0-52-4.5t-49-14.5l-46 68q-5 7-11 2.5t-2-11.5l45-65q-54-25-88.5-70t-38.5-99h484q-4 54-38.5 99t-88.5 70zM409 532q-8 0-14 3.5t-9.5 9.5-3.5 13.5 3.5 13.5 9.5 9.5 14 3.5q11 0 19-7.5t8-18.5-8-19-19-8zM617 532q-11 0-19 8t-8 19 8 18.5 19 7.5 18.5-7.5 7.5-18.5-7.5-19-18.5-8z" />
<glyph unicode="&#xe637;" glyph-name="uniE637" horiz-adv-x="1000" d="M554-18q0-21-6-33t-14.5-13.5-17.5 0.5-15 5-6 4l-257 216h-40q-12 0-22 6t-16 16.5-6 22.5v182q0 18 13 31.5t31 13.5h48l249 211q1 1 3.5 2.5t8.5 4 11.5 3.5 12.5 0 12-5.5 8.5-15.5 3.5-27v-624h-1zM688 176q27 22 41 53.5t13 63-15 61.5-39 49q-12 7-23-2.5t-16-22.5l-5-13q2-4 6.5-10t12.5-24.5 10.5-36-4-40-25.5-40.5q-12-15 4.5-32t39.5-6zM725 531q-5 5-18-3t-18.5-21 6.5-29q56-47 83.5-92.5t28-91-27-92-84.5-94.5q-15-16-1-38t31-15q59 28 97 77.5t47.5 106.5-1.5 113.5-48.5 104.5-94.5 74z" />
<glyph unicode="&#xe638;" glyph-name="uniE638" horiz-adv-x="1000" d="M559 729q13 3 26-2t22-15q2-3 4.5-6.5t4.5-7.5 3-8 2-8.5 1.5-9 0.5-8.5v-717q0-35-6-51-8-24-29-34-22-11-47 2-6 2-11 5.5t-10 8-9 8.5l-18 18-93 92-108 109q-1 0-4 3.5t-5.5 5-5.5 0.5h-122q-20 0-33 6-29 12-35 45v258q2 10 7.5 19.5t13.5 16.5q17 14 41 14h128q2 0 4 1t3.5 2 3.5 3l3 3q42 43 121 121.5t101 99.5q23 23 46 26zM561 690q-8-3-22-15-79-80-238-238-10-10-11-12-3-5-4-10t-1-11v-219q0-5 0.5-9.5t2.5-9.5 6-8l130-130q85-85 117-116 13-13 23-15 3-1 5.5 0t4.5 3l4 4q5 11 5 41v717q0 18-7 26-5 4-15 2zM138 429q-11-5-10-19v-232q-1-12 6-17 6-5 17-5h99q-4 13-4 27v221q0 7 1 14t3 14h-95q-13 0-17-3zM772 547q9 4 20-2 81-44 120-128 35-72 27-152-7-71-47-131-39-57-99-91-10-5-18-3-7 2-11 9.5t-2 14.5q2 8 12 14 70 39 104 113 18 37 22 79.5t-7 83.5q-12 49-43 89.5t-75 65.5q-12 7-14 15v6q0 2 0.5 5t2 5 3.5 4 5 3zM690 423q6 1 9.5 0.5t9.5-2.5q17-5 32-15t27-23.5 20-29.5q7-15 10.5-31t3-33-5.5-32q-9-31-32-55.5t-54-34.5q-7-3-12-3.5t-12 2.5q-4 3-6.5 7.5t-2.5 9 2 9.5q3 7 22 14 25 9 41.5 31t18.5 49q1 11-0.5 22t-6 21-10.5 19-14.5 16.5-18.5 12.5q-3 2-6.5 3.5t-7 2.5-6.5 2.5-6 3.5-5 5q-3 6-3 11.5t3.5 10.5 9.5 7z" />
<glyph unicode="&#xe639;" glyph-name="uniE639" d="M428 722q60-143-31-276-25-36-58-73t-55.5-58-26-19.5-8 27-6.5 58.5 1 64q6 45 2 44-2 0-8-14-2-3-3-4-3-7-20-35.5t-34-60.5-36-72-32-85.5-16-86.5q-11-149 150-254 51-34 95-49l-3 3q-2 2-8.5 10t-11.5 17.5-10 24-7.5 31-1.5 38.5 7 45q10 39 24 67.5t24.5 39.5 26 24.5 21.5 19.5q30 35 26 105 2-1 4.5-4.5t9-15 9.5-25.5 6-37.5-2-49.5q1 1 3.5 4.5t10 14.5 14 22 15.5 27.5 16 32 13.5 34.5 10 36 3.5 34.5-5 32.5q-1 2 2 0 23-14 66-72 103-140 96-263-3-47-11-82t-15-50-18-34.5-16-29.5q5 1 14 4.5t35.5 16 50.5 27 55 39 55.5 52.5 44.5 67 27 82q20 106-16.5 217t-110.5 181q-62 57-66 59-3 2-3-3 1-4 15-47 14-42 14-77.5t-5-49-11-22.5q-1-1-2.5 2.5t-4.5 12-8 20.5-13 29-18 35.5-25 42.5-32 49q-36 50-74 87.5t-64.5 54-48.5 24.5q-27 9-27 5 0-1 5-14z" />
<glyph unicode="&#xe63a;" glyph-name="uniE63A" d="M839 480q119-85 185-216-73-145-210-232.5t-302-87.5q-92 0-179 29l78 78q50-11 101-11 137 0 252 74 92 58 150 150-28 44-64.5 81t-79.5 65zM512 78q-17 0-33.5 2t-32.5 7l313 313q5-16 7-32.5t2-33.5q0-106-75-181t-181-75zM960 776h-54l-219-220q-85 28-175 28-165 0-302-87.5t-210-232.5q65-129 181-213l-181-181v-54h54l906 906v54zM416 462q14 0 27.5-4t24.5-11.5 20-17.5 15-22.5 8-25.5l-110-110q-34 5-57.5 32t-23.5 63q0 40 28 68t68 28zM110 264q29 45 66.5 83.5t83.5 66.5q2 2 5 4l6 4q-15-43-15-88 0-87 53-156l-59-58q-85 58-140 144z" />
<glyph unicode="&#xe63b;" glyph-name="uniE63B" d="M256 340h128v-320h256v320h128l-256 256z" />
<glyph unicode="&#xe63c;" glyph-name="uniE63C" d="M768 276h-128v320h-256v-320h-128l256-256z" />
<glyph unicode="&#xe63d;" glyph-name="uniE63D" d="M852 152v-138q0-19-9-35t-25-25.5-35-9.5h-547q-28 0-48 20.5t-20 49.5v138h-101v-171q0-58 43-99.5t101-41.5h610q37 0 68.5 19t49.5 51 18 71v171h-105zM407 82h206l1 315 134-2-237 317-238-315h134v-315z" />
<glyph unicode="&#xe63e;" glyph-name="uniE63E" d="M512 584q-165 0-302-87.5t-210-232.5q73-145 210-232.5t302-87.5 302 87.5 210 232.5q-73 145-210 232.5t-302 87.5zM764 414q46-28 83.5-66.5t66.5-83.5q-58-92-150-150-56-36-120.5-55t-131.5-19-131.5 19-120.5 55q-92 58-150 150 29 45 66.5 83.5t83.5 66.5q2 2 5 4l6 4q-15-43-15-88 0-106 75-181t181-75q42 0 81 13t70.5 36.5 55 55 36.5 70.5 13 81q0 8-0.5 15.5t-1.5 15-2 14.5-3 14.5-4 14.5l-4 14q6-4 11-8zM512 366q0-40-28-68t-68-28-68 28-28 68 28 68 68 28 68-28 28-68z" />
<glyph unicode="&#xe63f;" glyph-name="uniE63F" d="M173 185v345h854v-345h-854zM0 357l431 431v-861z" />
<glyph unicode="&#xe640;" glyph-name="uniE640" d="M809 344h-225l55 444-444-580h225l-54-444z" />
<glyph unicode="&#xe641;" glyph-name="uniE641" d="M399-106l39 319h-153l340 445-39-319h153zM376 258h113l-25-205 184 241h-113l25 205zM512 679q109 0 202-54t147-147 54-202-54-202-147-147-202-54-202 54-147 147-54 202 54 202 147 147 202 54zM512 724q-122 0-225-60t-163-163-60-225 60-225 163-163 225-60 225 60 163 163 60 225-60 225-163 163-225 60z" />
<glyph unicode="&#xe642;" glyph-name="uniE642" d="M321-236q-20 41-29 78.5t-9 66 9 58 20.5 50.5 29.5 47q25 37 43 79t23 65l6 23q2-2 4.5-6.5t10-20 10.5-31.5 6-41.5-4-50.5q54 60 74 147t9 137q66-47 114-119t69.5-152.5 14.5-168-45-161.5q113 64 181 141.5t87 151 12 150-35.5 139-64.5 117.5-66 87.5-49 46.5q13-28 17-61.5t-5-68.5-32-55q-23 87-61 158t-75.5 110-72 65-55.5 35l-22 8q29-194-194-469-4 57-11.5 92.5t-30.5 77.5q-3-50-27.5-106t-54-115.5-39.5-106.5q-25-122 29-214.5t213-182.5z" />
<glyph unicode="&#xe643;" glyph-name="uniE643" d="M224 724v-832l304 287 304-287v832h-608z" />
<glyph unicode="&#xe644;" glyph-name="uniE644" d="M152 664h305q9 0 14.5-6t7.5-18.5 2.5-20.5 0-25.5-0.5-22.5v-169q0-6 0.5-21.5t0-24-1.5-19.5-5.5-17.5-11.5-9.5q-5-2-16-3t-21-0.5-23 1-18 0.5h-162q-7 0-19.5-0.5t-20.5-0.5-19 1-17.5 3.5-11.5 7.5-6 13v309q6 18 23 23zM194 595v-220h220v223h-219q-1 0-1-3zM562 664h305q6-2 11-5.5t8-9 4-12.5v-301q0-4-1.5-7.5t-3.5-6.5-4-5.5-5.5-4.5-6.5-3q-9-2-22-2.5t-30.5 0.5-24.5 1h-157q-7 0-24.5-1t-31-1-21.5 3-12.5 9.5-6.5 19-2 21.5 0.5 25.5 0.5 22.5v182q-3 58 11 70 6 4 13 5zM604 595v-220h220v223h-219q-2 0-1-3zM294 530q12 2 22 0t17.5-8 12-15 4.5-20q0-27-22-40t-45-2q-7 4-12 10t-7.5 13.5-3.5 15.5 1.5 15.5 6.5 13.5 11 11 15 6zM704 530q39 8 51-26 10-30-10-51-16-16-41-12-22 4-30.5 24t0 40.5 30.5 24.5zM455-108h-302q-9 3-15.5 9t-8.5 16v308q6 19 20 23 9 2 22 2.5t30.5-0.5 24.5-1h156q7 0 24.5 1t31 0.5 22.5-2.5q8-3 13-9.5t6.5-18.5 2-21 0-25.5-0.5-23.5v-162q0-6 0.5-24.5t0-26.5-2.5-20-8-18-16-7zM194 179v-220h220v223h-219q-1 0-1-3zM890 221v-86q-1-7-0.5-46t-0.5-47h-218v50q-5 2-33 1.5t-34-0.5q-2-17-1.5-99.5t0.5-101.5h-40q-10 2-16 8.5t-8 18.5-2 21.5 0.5 27 0.5 24.5v158q0 7-1 25.5t-0.5 32 2.5 21.5q2 5 4.5 8.5t7 5.5 8 3.5 11 2 11.5 0.5h174v-136h69q0 12-0.5 68.5t1.5 67.5q12 1 23.5 0.5t20.5-3 15-8.5 6-17zM300 116q25 2 40.5-17.5t6.5-45.5q-9-23-33.5-27t-42.5 12.5-10.5 45 39.5 32.5zM745-108h-74v41q0 33 1 39h73v-80zM890-28v-52q-4-21-24-28h-52q0 8-0.5 41t1.5 39h75z" />
<glyph unicode="&#xe645;" glyph-name="uniE645" d="M514 159l-378 378-74-74 450-450 450 450-72 72z" />
<glyph unicode="&#xe646;" glyph-name="uniE646" d="M514 395l-378-378-74 74 450 450 450-450-72-72z" />
<glyph unicode="&#xe647;" glyph-name="uniE647" d="M627 272l-378 378 74 74 450-450-450-450-72 72z" />
<glyph unicode="&#xe648;" glyph-name="uniE648" d="M512 724q-61 0-119-16t-107.5-45-91-70.5-70-90.5-45-107-16.5-119q0-73 23-141.5t64.5-124 96.5-97 123.5-64 141.5-22.5q91 0 174 35.5t143 95.5 95.5 143 35.5 175q0 61-16 119t-45 107-70 90.5-90.5 70.5-107.5 45-119 16zM471 17q-63 77-132 133.5t-122 75.5l164 99 80-154q2 7 7 18.5t22.5 46 37 67.5 49.5 77 61.5 80.5 72.5 71.5 82 56q-1-15-5-52t-5-56.5 3.5-50.5 16.5-59q-42-9-111.5-75t-129.5-143.5-91-134.5z" />
<glyph unicode="&#xe649;" glyph-name="uniE649" d="M580 276q-9 0-16-7t-7-17q0-14 15-20 5-2 8-2 6 0 12 2t9.5 5 6 7 2.5 8q0 7-4 12.5t-11 8.5-15 3zM503 389q14 0 22 8t8 21q0 7-2 12.5t-6 9-9.5 5.5-12.5 2q-6 0-12.5-2t-11-5.5-7.5-9.5-3-12q0-13 10-21t24-8zM512 787q-104 0-198.5-40.5t-163-109-109-163-40.5-198.5 40.5-199 109-163.5 163-109 198.5-40.5 199 40.5 163.5 109 109 163.5 40.5 199q0 83-26 161t-73 141-110 110.5-141 73-162 25.5zM416 146q-15 0-29 1.5t-26 4.5l-28 7-84-42 24 72q-94 66-94 158 0 84 69 142t168 58q57 0 107.5-21t85-59 44.5-85q-3 1-6 1.5t-5 0.5h-11q-85 0-143-55t-58-132q0-9 0.5-17.5t2-16 3.5-16.5q-6-1-20-1zM763 64l17-60-63 36q-5-1-22-5t-28-5.5-22-1.5q-41 0-78.5 13.5t-64 36.5-42 54.5-15.5 66.5q0 72 58 122t142 50q52 0 98.5-23t74.5-62.5 28-86.5q0-74-83-135zM338 447q-7 0-13-2t-11.5-5.5-8.5-9.5-3-12q0-13 11-21t25-8q13 0 21.5 8t8.5 21q0 5-1.5 10t-4 8.5-6.5 5.5-8.5 3.5-9.5 1.5zM711 276q-10 0-17-7t-7-17q0-15 16-20 4-2 8-2 12 0 20.5 6.5t8.5 15.5q0 10-8.5 17t-20.5 7z" />
<glyph unicode="&#xe64a;" glyph-name="uniE64A" d="M395 272l378 378-74 74-450-450 450-450 72 72z" />
<glyph unicode="&#xe64b;" glyph-name="uniE64B" d="M515 788q105 0 198-40t162.5-110 109.5-163 40-198q0-106-40-199t-109.5-162.5-162.5-109.5-198-40q-106 0-199.5 40t-162.5 109.5-109 162.5-40 199q0 105 40 198t109 163 162.5 110 199.5 40zM547-103q30 0 51.5 21t21.5 51q0 32-21 53-11 10-24 15.5t-28 5.5q-31 0-52-21t-21-53q0-30 21-51t52-21zM616 191q0 14 20.5 33.5t44.5 48.5 44.5 67.5 20.5 90.5q0 34-13.5 72t-42.5 69.5-75 52-111 20.5q-76 0-121-26.5t-68-64.5-30-78.5-7-68.5q0-26 21.5-37t46.5-9q9 0 17 2t15.5 5 14.5 8q22 14 22 36 0 14 1.5 31.5t11 33 28 26 50.5 10.5q51 0 80.5-28t29.5-66q0-16-5-31t-16-30q-21-29-46-53-12-13-23.5-23.5t-22.5-20.5q-21-19-21-30v-79q0-9 21-14t46-5q9 1 16.5 1.5t15 2 14.5 2.5q11 3 16 7.5t5 10.5v34z" />
<glyph unicode="&#xe64c;" glyph-name="uniE64C" d="M655 407h112l-255 256-257-256h113l144 143zM655 148h112l-255-256-257 256h113l144-143z" />
<glyph unicode="&#xe64d;" glyph-name="uniE64D" d="M2-107v-128h1022v383h-128v-255h-766v255h-128v-255zM597 20v380h235l-319 325-319-325h235v-380h168z" />
<glyph unicode="&#xe64e;" glyph-name="uniE64E" d="M512-166q-73 0-141.5 22.5t-123.5 64-96 96.5-64 123.5-23 140.5q0 91 35.5 174t95.5 143 143 95 174 35 173.5-35 142.5-95 95.5-143 35.5-174-35.5-173.5-95.5-142.5-142.5-95.5-173.5-35.5zM512 688q-111 0-204.5-54.5t-148-148-54.5-204 54.5-204 148-148 204-54.5 204 54.5 148 148 54.5 204-54.5 204-148 148-203.5 54.5zM247 261l41 41 122-122 305 305 40-41-345-345z" />
<glyph unicode="&#xe64f;" glyph-name="uniE64F" d="M512 660q-122 0-225-60t-163-163-60-225 60-225 163-163 225-60 225 60 163 163 60 225-60 225-163 163-225 60zM512-148q-149 0-254.5 105.5t-105.5 254.5 105.5 254.5 254.5 105.5 254.5-105.5 105.5-254.5-105.5-254.5-254.5-105.5zM935 501q12 21 18.5 45t6.5 50q0 80-56 136t-136 56q-46 0-85.5-20t-66.5-55q65-13 124.5-43t108.5-72.5 86-96.5zM408 713q-27 35-66.5 55t-85.5 20q-39 0-74.5-15t-61.5-41-41-61.5-15-74.5q0-17 3-33.5t8.5-32 13.5-29.5q19 27 40.5 51t46 45.5 51.5 39.5 56 33 60.5 26 64.5 17zM448 468h64v-320h-64v320zM512 212h192v-64h-192v64z" />
<glyph unicode="&#xe650;" glyph-name="uniE650" d="M317-115q-6 0-11 3-16 7-16 23v134h-201q-7 0-13 3.5t-9.5 9.5-3.5 13v573q0 11 7.5 19t18.5 8h841q11 0 18.5-8t7.5-19v-573q0-3-0.5-5.5t-1.5-5-2.5-4.5-3.5-4-4-3l-4-2q-2-1-5-1.5t-5-0.5h-420l-176-153q-3-2-5.5-3.5t-5.5-2.5-6-1zM115 97h202q11 0 18.5-7.5t7.5-18.5v-102l140 122q8 6 18 6h403v521h-789v-521zM747 460h-475q-11 0-18.5 8t-7.5 18q0 8 3.5 14t9.5 9.5 13 3.5h475q11 0 18.5-8t7.5-19q0-20-20-25-4-1-6-1zM747 332h-475q-11 0-18.5 7.5t-7.5 18.5q0 7 3.5 13t9.5 9.5 13 3.5h475q11 0 18.5-7.5t7.5-18.5q0-20-20-25-4-1-6-1zM548 203h-276q-11 0-18.5 8t-7.5 19q0 7 3.5 13t9.5 9.5 13 3.5h276q7 0 13-3.5t9.5-9.5 3.5-13q0-11-7.5-19t-18.5-8z" />
<glyph unicode="&#xe651;" glyph-name="uniE651" horiz-adv-x="1028" d="M546.5 787q99.5 0 187-38t152.5-103 103-152.5 38-187-38-187-103-152.5-152.5-102.5-186.5-37.5q-88 0-166.5 30t-141.5 82l116 249q22-35 40-65 16-25 31-48t21-31q12-15 21.5-27t27.5-14q21-3 30.5 7.5t20.5 27.5q3 5 11.5 22t21 43 28 57 30.5 64q36 76 80 169l108-59-44 317-278-171 122-42-129-265q-30 48-52 84-9 15-17.5 29t-14.5 24l-10 15q5-8 1-2.5t-12 16-18 20.5-20 10q-23 0-33.5-11.5t-16.5-27.5q-2-4-10-22t-21.5-44.5-28.5-59.5l-33-63q-15-33-29.5-62.5t-24.5-50.5q-43 60-66 130.5t-23 148.5q0 99 37 186.5t102 152.5 152.5 103 187 38z" />
<glyph unicode="&#xe652;" glyph-name="uniE652" horiz-adv-x="1000" d="M582 247q72 25 122.5 105t50.5 159q0 60-30.5 110t-82 79.5-113.5 29.5q-93 0-159-64t-66-155q0-78 49-157t120-106q-255-15-351-209-44-89-44-183h18q18-1 50-1h70q39 0 84 0.5t86 0.5h143q422 0 422 1 0 20-1.5 40t-5 45-10.5 48-17 48.5-26 48.5-36 45.5-47.5 41-60 33.5-75 25-90.5 15zM360 511q0 68 49.5 116t119.5 48 119.5-48 49.5-116q0-46-22-96.5t-62-86.5-85-36q-13 0-27 3.5t-26 10.5-24 16.5-22.5 21-19.5 24.5-17 27-14 29-10 30-6.5 29.5-2.5 27.5zM515-100q-27 0-136-0.5t-183-0.5-74 1q0 54 15 99t39.5 76 59 55 69.5 38 75 23 72 12 63 3 63-3 72-12 75-23 69.5-38 59-55 39.5-76 15-99h-393z" />
<glyph unicode="&#xe653;" glyph-name="uniE653" d="M962 314q-5-6-11-9t-12-3q-10 0-17 6l-409 299-410-299q-9-7-20.5-5t-18.5 11q-5 6-5.5 14t2.5 14.5 9 11.5l426 311q17 13 33 0l426-311q10-7 11.5-18.5t-4.5-21.5zM837-71h-229q-12 0-20 8t-8 20v268h-134v-268q0-3-1-5l-2-6q-1-2-2.5-4.5t-3.5-4.5-4-3.5-4.5-2.5-5.5-1.5-6-0.5h-229q-12 0-20 8t-8 20v448q0 8 3.5 14.5t10 10 14.5 3.5q12 0 20-8t8-20v-419h173v268q0 8 3.5 14.5t10 10 14.5 3.5h191q8 0 14.5-3.5t10.5-10 4-14.5v-268h172v419q0 12 8.5 20t19.5 8q8 0 14.5-3.5t10.5-10 4-14.5v-448q0-12-8.5-20t-20.5-8z" />
<glyph unicode="&#xe654;" glyph-name="uniE654" d="M256 194v-327h154v327l-77 64zM0-133h154v250l-154-122v-128zM768 270v-403h154v531zM512 110v-243h154v320l-122-102zM1024 661h-294l121-115-313-256-205 172-333-262v-115l333 262 211-173 378 308 102-96v275z" />
<glyph unicode="&#xe655;" glyph-name="uniE655" d="M576 730h400v-400h-400v400zM56 730h400v-400h-400v400zM56 210h400v-400h-400v400zM576 210h400v-400h-400v400z" />
<glyph unicode="&#xe656;" glyph-name="uniE656" d="M947 336q0-54-15-106.5t-42.5-97-66.5-81.5q-46-44-311-243v120q-118 0-218.5 55t-158.5 149-58 204.5 58 204.5 158.5 149 218.5 55 218.5-55 158.5-149 58-205zM664 475l-217-182-107 85-62-70 164-146 1 1 16-15 287 256z" />
<glyph unicode="&#xe657;" glyph-name="uniE657" d="M823 676h-622q-37 0-63-26t-26-63v-622q0-15 4.5-28.5t13-24.5 19-19 24-12.5 28.5-4.5h622q37 0 63 26t26 63v622q0 37-26 63t-63 26zM823 356l-267-302-177 178-178-178v133l178 178 177-178 267 302v-133z" />
<glyph unicode="&#xe658;" glyph-name="uniE658" horiz-adv-x="1000" d="M100 249l476 476 190-8 118-4q2 0 5.5-0.5t4.5-0.5h5q3 0 5-0.5t5-1.5 5-2 5.5-2.5 6-3.5 5.5-4.5 7-5.5q19-20 20-38l5-134q2-51 8-190-67-66-153-152l-172-172q-86-86-151-152-25-24-59.5-24t-58.5 24l-277 277q-24 24-24 59t24 59zM797 642q-19-19-19-45.5t19-45.5 45.5-19 45 19 18.5 45.5-18.5 45.5-45 19-45.5-19z" />
<glyph unicode="&#xe659;" glyph-name="uniE659" d="M212 411h-78q-22 0-40-10t-28.5-27.5-10.5-37.5v-353q0-31 23-53.5t56-22.5h78q32 0 55 22.5t23 53.5v353q0 6-1 12t-3 11.5-4.5 11-6 10-8 8.5-9.5 7.5-10 6-11 4.5-12.5 3-12.5 1zM173-42q-27 0-46 18.5t-19 44.5 19 44.5 46 18.5q18 0 33-8.5t23.5-23 8.5-31.5q0-26-19-44.5t-46-18.5zM962 344q0 27-13.5 50.5t-36.5 37-51 13.5h-205q58 84 37 168-19 77-77 92-44 12-74-18-16-17-17-41 0-17-11-62.5t-22-71.5q-5-11-12-23.5t-14-22.5-15-21h-26q-42 0-71.5-29.5t-29.5-71.5v-369q0-17 5-32.5t14.5-27.5 22-21.5 27.5-14.5 32-5h123q34-34 78-34h151q44 0 69 36 27 8 48 38.5t33 70 20 92 11 94.5 4 87.5 0.5 61-0.5 24.5z" />
<glyph unicode="&#xe65a;" glyph-name="uniE65A" d="M512 499q46 0 79 33t33 79-33 79-79 33q-23 0-43.5-9t-35.5-24-24-35.5-9-43.5q0-46 33-79t79-33zM512 388q-46 0-79-33t-33-79q0-30 15-56t41-41 56-15q46 0 79 33t33 79-33 79-79 33zM512 53q-46 0-79-33t-33-79 33-79 79-33 79 33 33 79-33 79-79 33z" />
<glyph unicode="&#xe65b;" glyph-name="uniE65B" d="M528.5 397q-43.5 0-74-30.5t-30.5-73.5 30.5-73.5 74-30.5 74 30.5 30.5 73.5-30.5 73.5-74 30.5zM528 524q-78 0-148.5-21t-117.5-51-82.5-64-52-59-16.5-36 16.5-36.5 52-59 82.5-64 117.5-51.5 148-21 148 21 117.5 51.5 83 64 52 59 16 36.5q0 21-45 72-98 108-247 145-61 14-124 14zM528 115q-38 0-72.5 14t-59 37.5-39.5 57-15 69.5q0 74 54.5 126t131.5 52q30 0 58-9t51-25.5 40-38.5 26.5-49 9.5-56q0-84-68-138-52-40-117-40z" />
<glyph unicode="&#xe65c;" glyph-name="uniE65C" d="M370 788h284v-1024h-284v1024z" />
<glyph unicode="&#xe65d;" glyph-name="uniE65D" d="M789-236h-554q-45 0-76 31t-31 76v810q0 45 31 76t76 31h554q29 0 53.5-14.5t39-39 14.5-53.5v-810q0-45-31-76t-76-31zM789 745h-554q-5 0-10-0.5t-9-2-8-3.5l303-231 317 224q-8 6-18 9.5t-21 3.5zM853 681q0 7-1 13l-339-237-337 250q-5-12-5-26v-810q0-13 5-25t13.5-20.5 20.5-13.5 25-5h554q13 0 25 5t20.5 13.5 13.5 20.5 5 25v810zM606 121q34-23 34-68 0-66-44-93-11-7-27-11.5t-36-7.5v-70h-42v70q-34 4-57 16t-36 33q-14 25-14 67h45q2-33 11-49 7-12 20-19.5t31-9.5v134q-25 5-43 13t-30 18q-27 24-27 66 0 37 29 67 12 13 30 20.5t41 8.5v77h42v-77q46-5 70-27 28-25 29-67h-45q-1 9-3.5 17t-7.5 15q-14 21-43 25v-121q11-3 20-5.5t17-5.5 14.5-5.5 12-5.5 9.5-5zM533-23q38 4 52 29 9 15 9 35 0 30-24 46-11 8-37 15v-125zM491 270q-27-4-39-19-15-18-15-39 0-24 17-38 13-10 37-16v112z" />
<glyph unicode="&#xe900;" glyph-name="notdef" horiz-adv-x="374" d="M34-24v682h272v-682h-272zM68 10h204v614h-204v-614z" />
<glyph unicode="&#xe901;" glyph-name="urshop" horiz-adv-x="3289" d="M970.567 691.963h-545.572c-43.34 0-78.499-35.138-78.499-78.478v-545.572c0-43.377 35.159-78.499 78.499-78.499h545.572c43.34 0 78.499 35.122 78.499 78.499v545.572c0 43.34-35.159 78.478-78.499 78.478zM525.591 334.682c0 32.363-0.214 66.736-0.674 103.157-0.337 28.601-0.83 58.777-1.439 90.421-5.192 6.611-8.313 14.919-8.313 23.964 0 21.493 17.419 38.929 38.908 38.929 21.493 0 38.912-17.435 38.912-38.929 0-9.168-3.198-17.588-8.518-24.244-2.068-70.77-3.116-127.257-3.116-169.351 0-38.057 1.85-69.051 5.55-92.999 2.664-17.070 6.825-32.084 12.424-45.104-28.293 18.915-53.042 45.696-72.591 78.211-0.744 11.429-1.143 23.38-1.143 35.944zM696.464 118.53c-30.176 0-56.043 4.321-77.574 12.95-21.53 8.65-39.249 21.867-53.129 39.693-13.875 17.826-24.054 40.281-30.492 67.394-1.139 4.765-2.138 9.735-3.075 14.804 40.092-61.347 99.379-100.238 165.585-100.238 64.878 0 123.133 37.338 163.176 96.567-20.326-87.42-75.127-131.171-164.492-131.171zM872.023 526.065c-0.596-30.743-1.057-59.887-1.41-87.403-0.428-35.87-0.641-69.314-0.641-100.366 0-14.142-0.551-27.586-1.628-40.363-18.796-31.043-42.353-56.829-69.207-75.456 4.839 12.079 8.559 26.007 11.129 41.86 3.947 24.145 5.908 55.797 5.908 94.939 0 23.183-0.354 50.904-1.139 83.161-0.592 25.502-1.455 54.247-2.545 86.117-5.057 6.566-8.095 14.763-8.095 23.676 0 21.493 17.419 38.929 38.912 38.929s38.908-17.435 38.908-38.929c-0.004-10.085-3.881-19.253-10.192-26.163zM843.302 586.491c-19.355 0-35.031-13.842-35.105-30.867 3.684 12.543 17.489 21.937 34.073 21.937 19.409 0 35.105-12.827 35.105-28.573 0-0.321-0.107-0.621-0.107-0.941 0.678 2.417 1.139 4.892 1.139 7.474 0 17.078-15.696 30.969-35.105 30.969zM588.147 548.989c0-0.321-0.107-0.621-0.107-0.941 0.678 2.417 1.139 4.892 1.139 7.474 0 17.078-15.692 30.973-35.105 30.973-19.355 0-35.031-13.842-35.105-30.867 3.684 12.543 17.489 21.937 34.073 21.937 19.413-0.004 35.105-12.831 35.105-28.577zM1283.632 370.643c-37.576-2.845-62.042-26.669-80.028-43.27v38.715h-82.022v-354.041h82.022c0 0 0 122.624 0 234.443 16.424 34.176 36.154 53.536 80.595 65.261 15.746 4.144 50.317-3.77 69.281-11.302v57.984c-12.116 3.758-41.63 14.344-69.849 12.21zM1594.119 179.77c-15.816 12.399-40.121 25.033-72.928 37.913-30.39 11.906-50.81 22.060-61.24 30.443-10.463 8.395-15.692 19.392-15.692 33.004 0 26.973 29.341 38.485 69.96 42.275 60.919 5.673 94.512-29.054 105.328-41.597v58.662c-27.898 13.859-61.647 28.536-103.441 28.536-42.81 0-74.638-9.912-95.543-29.711-20.905-19.82-31.348-43.574-31.348-71.292 0-26.492 11.421-49.104 34.267-67.805 15.548-12.65 40.602-25.781 75.115-39.393 27.22-10.693 46.719-20.354 58.518-28.984 11.795-8.629 15.746-20.231 14.036-34.822-3.507-29.942-22.846-46.329-75.826-46.329-36.972 0-77.894 20.494-106.36 37.005v-57.042c23.146-10.619 64.405-26.242 104.526-26.242 90.651 0 136.001 35.475 136.001 106.467-0.004 26.727-11.799 49.696-35.372 68.911zM2001.392 247.949c0 45.461-10.923 77.236-32.803 95.346-21.884 18.114-52.273 27.167-91.169 27.167-43.5 0-67.427-16.050-103.901-48.129 0 63.448 0 202.721 0 202.721h-84.583v-513.011h84.583c0 0 0 136.355 0 269.084 31.845 25.033 49.959 37.56 86.417 37.56 25.995 0 46.366-6.866 61.080-20.601 14.693-13.735 22.060-40.298 22.060-79.674 0-73.639 0-206.368 0-206.368h58.321c-0.958 80.455-1.455 138.188-1.455 173.187 0 10.212 0.251 22.060 0.748 35.545 0.456 13.509 0.703 22.55 0.703 27.175zM2246.799 374.466c-48.376 0-90.491-17.612-126.34-52.857-35.87-35.245-53.766-84.225-53.766-146.945 0-56.15 16.227-99.671 48.664-130.538 32.454-30.867 71.292-46.296 116.502-46.296 48.376 0 90.417 17.435 126.163 52.327 35.726 34.871 53.589 83.424 53.589 145.663 0 56.631-16.177 100.559-48.503 131.804-32.334 31.22-71.098 46.843-116.309 46.843zM2320.438 85.883c-18.718-28.075-45.564-42.115-80.562-42.115-29.859 0-53.856 10.43-72.093 31.228v224.4c17.941 19.392 41.469 29.132 70.638 29.132 35.224 0 62.395-14.767 81.483-44.302 19.076-29.535 28.61-63.25 28.61-101.18 0-36.709-9.357-69.088-28.075-97.163zM2786.056 320.326c-26.977 33.913-63.678 50.867-110.097 50.867-52.75 0-81.824-13.735-105.402-41.206v36.1h-82.375v-520.662h82.375c0 0 0 124.757 0 192.332 14.093-16.029 48.804-38.715 93.533-38.715 53.466 0 90.688 20.478 120.7 59.978 30.036 39.496 41.757 87.925 41.757 140.45 0 46.662-13.505 86.943-40.491 120.856zM2750.791 85.883c-18.718-28.075-45.58-42.115-80.595-42.115-35.475 0-62.769 14.697-81.841 44.121-19.092 29.391-28.626 63.197-28.626 101.361 0 36.935 9.41 69.388 28.268 97.34 18.825 27.952 45.761 41.934 80.743 41.934 35.261 0 62.416-14.767 81.504-44.302 19.076-29.535 28.626-63.25 28.626-101.18-0.004-36.704-9.365-69.084-28.079-97.159z" />
<glyph unicode="&#xf01f;" glyph-name="uniF01F" horiz-adv-x="1000" d="M799 395q-1-12-2-25-16-108-94.5-179t-182.5-71h-46l-8-8q24-43 65-69t90-26h45l89-91q9-9 22-9 5 0 11 2 18 7 18 27v75q63 13 104 65t41 122q0 46-20 87t-54.5 67-77.5 33zM754 376q3 21 3 39 0 105-69.5 179t-167.5 74h-205q-65 0-119.5-34t-86.5-92-32-127q0-93 56-163t141-85v-107q0-7 2.5-13t7.5-11 11-8q7-2 13-2 15 0 25 10l123 127h64q58 0 108.5 27.5t83.5 76 42 109.5zM249 494h333q7 0 12-5.5t5-12.5-5-12.5-12-5.5h-333q-7 0-12 5.5t-5 12.5 5 12.5 12 5.5zM449 330h-200q-7 0-12 5t-5 12.5 5 12.5 12 5h200q7 0 12-5t5-12.5-5-12.5-12-5z" />
<glyph unicode="&#xf050;" glyph-name="uniF050" d="M923 636v-457q0-13-2.5-27t-7-27.5-11.5-26.5q-20-41-53-79-17-19-36-37t-40-35q-43-35-87-61-22-14-43.5-25t-41.5-20q-11-4-20.5-7.5t-18.5-6.5-17.5-5.5-16.5-4.5l-10-1-9 1q-32 7-74 24-14 6-28.5 13t-29.5 15-30 17q-23 13-45.5 28.5t-44.5 32.5-41.5 35-36.5 37-31 38.5-25 40.5q-21 40-21 81v457l33 5 378 71 385-71zM513 646h-4l-325-55v-288h329v343zM840 303h-327v-410q32 8 69 22 12 5 24.5 10.5t24.5 12 24 12.5q18 11 35.5 22t34.5 24q33 24 58.5 52.5t41 59.5 15.5 62v133z" />
<glyph unicode="&#xf05a;" glyph-name="uniF05A" horiz-adv-x="1000" d="M500 691q86 0 161.5-32.5t131.5-89 88.5-132 32.5-161.5-32.5-161-88.5-131.5-131.5-89-161.5-32.5-161 32.5-131.5 89-89 131.5-32.5 161 32.5 161.5 89 132 131.5 89 161 32.5zM743 88q5 14 8 31.5t5 37.5q-14 5-27.5 10.5t-27.5 11.5q-1-12-3-27t-5-34q-5-30-44-30h-30q-40-3-37 34v135l76 2 35-35 45 40q-39 35-77.5 69t-76.5 66l-39-30q5-5 12.5-11.5t17.5-16.5q22-19 31-31l-236-6q54 45 128 119h251v55h-211q-1 3-2 9l-4 14q-5 16-8.5 26t-4.5 16l-66-7q2-5 5-15t8-24q5-15 6-19h-232v-55h180q-47-52-96-91-22-22-52-35l29-55q8 2 23.5 4t41.5 4h24q0-75-33-108-29-35-124-65 2-4 5-8.5t8-11.5q8-11 13.5-19t8.5-14q194 60 182 231l73 2v-152q-2-70 72-67h65q71-3 83 50z" />
<glyph unicode="&#xf05c;" glyph-name="uniF05C" d="M733 513h-444q-6 0-11-1.5t-10-3.5-9-5-7-7-5.5-9-3.5-10-1-10q0-20 13.5-33.5t33.5-13.5h444q9 0 18 3.5t15 10 10 15 4 18-4 18-10 15-15 10-18 3.5zM733 105h-444q-7 0-13-2t-11-5-9.5-7-7.5-9.5-4.5-11.5-1.5-12q0-19 13.5-32.5t33.5-13.5h444q19 0 33 13.5t14 32.5-14 33-33 14zM731 309h-441q-20 0-34-13.5t-14-33.5q0-4 1-9t2.5-9 4.5-8l6-6q3-4 7-6.5t8.5-4 9-2.5 9.5-1h441q8 0 15.5 2.5t13.5 6.5 10.5 10 7 13 2.5 14q0 13-6.5 23.5t-18 17-24.5 6.5z" />
</font>
</defs>
</svg>
